<?xml version="1.0" standalone="no"?>
<!DOCTYPE svg PUBLIC "-//W3C//DTD SVG 20010904//EN"
 "http://www.w3.org/TR/2001/REC-SVG-20010904/DTD/svg10.dtd">
<svg version="1.0" xmlns="http://www.w3.org/2000/svg"
 width="768.000000pt" height="767.870073pt" viewBox="0 0 768.000000 767.870073"
 preserveAspectRatio="xMidYMid meet">
<metadata>
Created by potrace 1.16, written by Peter Selinger 2001-2019
</metadata>
<g transform="translate(0.000000,767.870073) scale(0.012993,-0.012993)"
fill="#000000" stroke="none">
<path d="M6 59091 c-3 -5 -5 -13301 -3 -29548 l2 -29538 29548 -3 29547 -2 0
29550 0 29550 -29544 0 c-17600 0 -29547 -4 -29550 -9z m59054 -29546 l0
-29505 -29505 0 -29505 0 0 29508 0 29507 29505 -3 29505 -2 0 -29505z"/>
<path d="M21290 42479 c-416 -47 -797 -231 -1075 -521 -249 -258 -389 -566
-472 -1033 -28 -157 -25 -581 5 -774 59 -378 203 -801 427 -1256 277 -563 660
-1150 1155 -1770 235 -294 607 -742 715 -860 99 -108 430 -455 783 -820 353
-365 961 -931 1282 -1195 30 -25 118 -100 196 -167 664 -570 1906 -1441 3609
-2531 1605 -1028 3385 -2089 4240 -2528 651 -334 1695 -745 2435 -959 638
-184 1185 -288 2090 -395 614 -72 964 -133 1373 -236 332 -84 517 -153 703
-260 246 -141 346 -229 412 -364 33 -66 37 -82 36 -150 0 -121 -62 -223 -166
-276 -76 -39 -127 -32 -156 20 -14 25 -17 58 -17 186 0 112 -4 163 -14 185
l-14 30 -14 -50 c-8 -27 -28 -99 -44 -160 -62 -222 -169 -390 -274 -431 -43
-16 -48 -16 -91 1 -53 20 -84 62 -84 115 0 19 14 121 30 225 22 137 30 223 29
310 -1 156 -7 172 -41 108 -39 -71 -65 -177 -88 -363 -39 -311 -71 -377 -226
-455 -98 -50 -173 -43 -223 21 -29 37 -27 100 5 177 36 88 44 148 32 252 -13
120 -17 126 -59 83 -45 -44 -59 -94 -59 -204 0 -161 -42 -288 -115 -352 -19
-18 -47 -35 -61 -38 -71 -18 -186 30 -217 90 -18 33 -19 57 -18 219 2 193 -1
208 -46 221 -20 6 -22 2 -33 -66 -22 -133 -61 -320 -81 -383 -31 -100 -102
-148 -195 -131 -49 10 -101 66 -147 159 -32 64 -38 87 -37 130 4 88 1 105 -23
133 l-24 27 -33 -120 c-40 -147 -80 -226 -138 -270 -38 -29 -51 -33 -105 -33
-110 0 -157 51 -157 167 0 32 9 132 20 223 20 170 26 330 12 330 -13 0 -48
-70 -70 -140 -11 -36 -39 -146 -62 -244 -23 -99 -49 -195 -57 -215 -31 -75
-89 -114 -168 -113 -88 1 -153 41 -176 109 -12 38 -9 68 28 288 27 164 26 226
-5 257 -20 20 -20 20 -51 -43 -17 -35 -38 -98 -46 -139 -8 -41 -21 -113 -30
-160 -24 -123 -53 -189 -95 -218 -31 -21 -44 -23 -111 -20 -64 3 -81 7 -112
31 -54 41 -68 77 -78 191 -10 127 -19 186 -30 186 -14 0 -49 -52 -58 -89 -5
-20 -12 -59 -16 -87 -15 -114 -75 -168 -182 -161 -127 9 -188 73 -198 208 -11
132 -13 141 -38 133 -36 -10 -47 -28 -67 -105 -24 -92 -58 -129 -121 -129 -80
0 -145 53 -190 155 -25 56 -23 95 15 358 l23 157 -26 0 c-18 0 -40 -16 -76
-55 l-51 -54 -12 -113 c-22 -197 -53 -283 -115 -315 -64 -33 -223 -7 -517 83
-115 35 -273 43 -388 20 -130 -26 -240 -79 -632 -301 -207 -118 -361 -193
-433 -212 -93 -24 -228 -21 -299 6 -80 31 -159 106 -200 189 l-33 67 -8 230
c-4 126 -5 314 -1 416 6 185 5 187 -20 236 -54 107 -132 154 -634 384 -1140
522 -2104 879 -2947 1090 -461 116 -1268 261 -1690 304 -33 3 -71 8 -85 10
-43 8 -375 34 -580 46 -250 15 -912 15 -1145 1 -358 -22 -1013 -162 -1320
-283 -188 -73 -347 -200 -433 -345 -79 -132 -91 -183 -152 -609 -92 -640 -181
-1194 -291 -1810 -57 -318 -61 -347 -56 -450 6 -120 22 -181 79 -288 39 -72
147 -186 233 -244 167 -113 450 -262 725 -383 191 -84 263 -127 285 -169 31
-62 19 -176 -80 -721 -88 -485 -115 -728 -97 -886 51 -452 340 -772 786 -871
101 -22 329 -22 420 0 149 37 278 109 382 214 192 192 233 425 116 663 -53
110 -177 232 -292 288 -47 23 -114 49 -150 58 -132 34 -320 12 -371 -42 -35
-37 -29 -97 26 -264 42 -127 48 -156 49 -235 1 -80 -2 -97 -27 -147 -35 -71
-116 -146 -203 -189 -54 -27 -78 -33 -133 -33 -92 0 -153 33 -254 138 -218
226 -277 429 -181 625 71 144 296 290 561 363 67 19 105 22 268 22 169 1 219
-3 448 -37 142 -20 401 -53 575 -72 174 -19 436 -55 582 -79 310 -52 424 -66
554 -66 190 0 325 47 411 142 101 112 122 194 235 894 161 1005 231 1416 251
1471 46 121 81 121 436 7 1150 -370 1958 -678 2833 -1079 1370 -627 2540
-1022 3615 -1219 546 -100 973 -131 2125 -156 1023 -22 1215 -11 1602 96 475
130 684 252 783 458 93 195 203 720 255 1216 29 279 33 305 120 830 143 855
146 884 110 1024 -43 170 -126 273 -324 403 -174 115 -321 190 -491 252 -186
68 -398 174 -452 227 -72 69 -54 115 69 179 100 52 174 103 298 204 145 118
413 389 484 489 83 117 165 284 218 447 109 327 131 647 69 990 -86 471 -350
1099 -674 1600 -153 237 -646 938 -851 1210 -236 314 -700 867 -945 1125 -91
96 -174 185 -184 197 -18 21 -18 21 44 55 140 74 231 196 264 353 72 341 -124
681 -454 789 -116 38 -178 47 -401 56 -297 13 -404 45 -516 157 -121 120 -184
343 -184 648 0 259 59 455 197 661 114 170 153 270 153 393 -1 134 -62 261
-214 440 -180 214 -355 302 -532 272 -105 -19 -262 -84 -359 -151 -234 -160
-519 -201 -784 -113 -158 53 -362 173 -458 268 -69 70 -110 155 -123 260 -11
88 -8 141 22 360 14 97 22 207 22 310 1 204 -17 274 -93 357 -76 83 -179 125
-411 168 -63 12 -173 32 -243 46 -175 35 -234 24 -323 -58 -80 -73 -157 -203
-240 -405 -133 -322 -238 -422 -481 -454 -161 -21 -400 7 -548 66 -221 87
-397 258 -504 487 -21 46 -54 117 -73 158 -61 131 -98 160 -279 218 -181 58
-287 74 -449 70 -124 -4 -156 -9 -223 -31 -239 -82 -329 -249 -292 -542 19
-157 19 -345 -1 -443 -8 -42 -33 -114 -54 -158 -86 -178 -309 -356 -571 -456
-80 -31 -91 -32 -224 -33 -129 0 -145 2 -203 26 -104 44 -168 89 -299 209
-233 213 -300 259 -401 278 -128 23 -250 -36 -491 -238 -167 -140 -271 -252
-312 -336 -31 -62 -34 -77 -34 -154 0 -125 32 -188 225 -440 84 -110 162 -253
179 -330 15 -66 13 -208 -4 -273 -21 -83 -86 -205 -180 -342 -147 -214 -237
-405 -238 -505 0 -75 25 -120 116 -207 90 -86 178 -136 282 -163 98 -25 152
-25 249 0 167 42 262 124 414 355 433 659 939 1115 1607 1448 405 202 810 324
1290 388 228 31 709 34 935 6 1067 -132 1986 -632 2624 -1428 227 -284 382
-532 582 -934 254 -512 363 -654 896 -1175 278 -272 471 -475 803 -845 99
-110 231 -256 294 -325 702 -770 1245 -1544 1631 -2325 190 -383 282 -613 315
-786 21 -109 21 -325 0 -443 -65 -372 -281 -630 -618 -740 -258 -84 -752 -133
-1082 -107 -769 61 -1511 209 -2193 437 -340 114 -958 356 -1327 520 -521 231
-1509 745 -2433 1266 -2444 1376 -4594 2814 -6157 4118 -254 212 -592 508
-715 625 -52 50 -165 156 -250 235 -219 204 -735 722 -930 935 -545 593 -1054
1219 -1397 1715 -368 532 -612 995 -732 1385 -133 433 -193 937 -146 1210 33
188 129 360 282 506 138 130 281 203 458 234 212 37 410 9 653 -91 45 -19 84
-34 87 -34 3 0 5 196 5 435 l0 435 -22 5 c-159 36 -344 55 -513 54 -77 -1
-174 -5 -215 -10z m4609 -14249 c141 -11 274 -23 296 -25 l40 -5 0 -81 0 -81
-50 7 c-59 7 -124 34 -145 60 -8 10 -20 34 -25 54 -10 35 -12 36 -75 43 -36 4
-82 9 -102 11 -35 5 -39 2 -54 -29 -25 -52 -69 -74 -147 -74 -36 0 -69 4 -72
10 -3 5 1 23 10 41 9 17 17 44 17 60 1 35 -22 35 307 9z m9 -236 c418 -34 482
-41 476 -54 -3 -8 -11 -33 -16 -55 -9 -38 -8 -58 8 -119 6 -25 5 -26 -38 -26
-55 0 -103 15 -145 47 -43 31 -55 57 -57 112 l-1 46 -66 3 -67 3 -12 -51 c-16
-65 -75 -145 -174 -236 l-78 -71 109 -5 c90 -4 119 -9 159 -29 71 -35 79 -65
66 -241 -10 -138 -4 -206 21 -237 10 -12 5 -13 -37 -8 -27 4 -80 7 -117 7 -56
0 -73 4 -89 20 -19 19 -20 29 -14 188 8 197 -1 232 -62 258 -51 21 -85 10
-136 -44 -92 -99 -140 -262 -94 -321 9 -12 -7 -13 -111 -7 -140 8 -151 10
-163 41 -14 36 7 153 37 205 14 25 110 128 213 230 181 178 219 225 240 301 8
26 6 28 -28 33 -21 3 -56 7 -79 8 -41 2 -43 1 -66 -42 -43 -83 -148 -132 -246
-115 l-41 7 29 36 c35 44 45 85 31 131 l-9 33 37 -5 c20 -3 254 -22 520 -43z
m1798 -54 c169 -22 312 -40 318 -40 7 0 11 -26 11 -70 l0 -70 -35 0 c-91 0
-166 47 -176 109 l-6 38 -102 11 c-137 16 -141 16 -154 -13 -20 -44 -68 -65
-147 -65 -94 0 -102 6 -76 58 12 23 21 50 21 62 0 13 7 20 20 20 10 0 157 -18
326 -40z m79 -214 c82 -35 125 -96 125 -177 0 -142 -118 -231 -308 -233 -61 0
-71 -3 -66 -16 18 -43 15 -118 -11 -251 l-28 -140 22 -30 22 -29 -28 1 c-15 0
-65 4 -111 8 -128 12 -144 41 -102 186 25 87 25 137 0 245 -22 95 -26 220 -9
271 27 78 93 136 196 170 73 24 236 21 298 -5z m1491 -33 l312 -27 -10 -29
c-6 -15 -8 -51 -6 -79 l5 -50 -54 6 c-99 12 -153 56 -153 126 0 14 -17 19 -94
28 -127 16 -123 16 -141 -19 -23 -44 -92 -73 -161 -67 -30 3 -56 7 -59 10 -9
9 29 128 40 128 6 0 150 -12 321 -27z m-36 -269 c179 -20 326 -37 328 -39 2
-2 -4 -17 -13 -35 -25 -48 -30 -119 -11 -164 l16 -39 -62 7 c-81 8 -157 45
-183 88 -11 18 -22 58 -25 88 l-5 55 -80 12 c-44 7 -83 9 -87 5 -7 -7 -68
-221 -134 -467 -26 -97 -37 -163 -38 -214 l-1 -73 -97 4 c-86 3 -100 6 -123
28 -14 13 -25 32 -25 43 0 15 159 628 186 720 3 9 11 17 17 17 7 0 158 -16
337 -36z m-3620 -399 c140 -14 273 -28 296 -31 l41 -6 -7 -40 c-4 -22 -4 -56
1 -76 4 -20 7 -37 6 -38 -1 -2 -30 1 -63 5 -92 11 -134 47 -134 116 0 26 0 26
-175 46 -69 7 -100 8 -103 0 -12 -36 -53 -78 -93 -95 -36 -15 -58 -17 -102
-12 l-56 7 24 35 c13 20 27 56 31 80 l6 45 37 -5 c20 -3 151 -17 291 -31z
m1794 -290 c160 -20 291 -37 293 -39 2 -2 -1 -16 -7 -31 -6 -15 -8 -36 -5 -46
3 -11 8 -29 11 -41 6 -20 4 -21 -52 -14 -91 11 -144 55 -144 120 0 23 -5 24
-117 37 -101 11 -117 11 -121 -2 -3 -8 -21 -30 -41 -51 -40 -40 -101 -56 -165
-44 l-34 7 19 49 c10 28 19 61 19 75 0 21 4 24 28 20 15 -3 157 -21 316 -40z
m1561 -226 c154 -18 283 -35 287 -38 4 -3 3 -23 -1 -44 -5 -20 -5 -53 -1 -73
l8 -37 -54 6 c-93 10 -164 66 -164 131 0 28 -6 31 -100 41 l-55 6 -20 -36
c-33 -63 -120 -89 -223 -69 -29 6 -30 8 -17 28 7 11 19 42 26 69 6 26 16 47
23 47 6 0 137 -14 291 -31z m-4170 -423 c57 -37 60 -55 62 -371 1 -267 11
-393 26 -355 3 8 24 116 47 240 65 362 93 441 170 480 54 28 177 28 211 1 l24
-19 -3 -236 c-2 -130 0 -236 4 -236 4 0 21 11 38 24 44 33 80 107 101 201 40
186 119 266 249 252 63 -6 111 -28 128 -60 7 -13 13 -65 13 -127 1 -106 13
-150 40 -150 29 0 64 23 73 49 6 14 17 47 26 72 35 99 114 169 189 169 69 0
157 -45 184 -93 20 -35 15 -92 -12 -153 -38 -87 -31 -126 29 -148 38 -13 61
17 97 130 26 83 42 116 68 142 33 33 35 34 105 30 171 -8 228 -99 192 -306
-17 -98 -11 -139 26 -170 14 -11 22 2 62 105 78 200 137 273 221 273 46 0 106
-33 128 -70 24 -40 21 -112 -13 -322 -16 -101 -59 -367 -95 -593 -130 -806
-143 -867 -194 -895 -38 -20 -93 -9 -229 44 -443 174 -812 252 -1667 351 -696
81 -1091 153 -1537 280 -311 89 -512 182 -780 361 -225 151 -278 230 -286 432
-5 136 0 167 37 222 52 77 170 132 218 102 24 -15 43 -82 43 -151 0 -125 31
-161 85 -98 25 28 41 68 74 184 47 167 71 210 136 249 39 23 54 26 105 22 103
-7 137 -64 125 -206 -7 -81 5 -156 28 -164 21 -8 75 11 82 30 12 30 33 114 45
182 6 36 21 80 32 98 39 63 179 151 242 152 19 0 39 -11 62 -34 l34 -34 0
-151 c0 -132 -5 -180 -41 -388 -23 -131 -44 -268 -47 -305 -4 -64 11 -138 28
-138 12 0 68 140 90 225 10 40 23 131 29 202 6 80 22 174 40 246 17 64 35 146
41 183 14 88 40 136 101 184 108 86 227 80 270 -13 26 -59 24 -91 -21 -362
-48 -286 -48 -305 -15 -342 l25 -28 20 25 c32 41 48 103 85 345 42 272 55 323
97 370 67 77 185 105 253 61z m10420 -687 c89 -42 150 -132 183 -274 23 -101
23 -546 -1 -658 -31 -147 -87 -236 -181 -285 -45 -23 -63 -26 -151 -27 -90 0
-105 3 -151 27 -88 46 -141 130 -166 263 -20 107 -17 588 4 680 40 172 121
269 248 296 56 12 166 1 215 -22z m1255 -535 c6 -666 -8 -604 136 -604 90 0
94 -1 100 -24 3 -13 4 -37 2 -52 l-3 -29 -333 -3 -333 -2 3 52 3 53 94 5 c139
7 129 -24 132 425 2 270 0 376 -9 391 -16 30 -63 44 -148 44 l-74 0 0 29 c0
26 5 31 50 46 66 22 139 89 175 162 16 32 34 61 40 66 5 4 44 6 85 5 l75 -3 5
-561z m1278 554 c9 -9 12 -146 12 -555 0 -393 3 -549 12 -568 14 -30 28 -34
133 -37 l80 -3 3 -52 3 -53 -330 0 -331 0 0 55 0 55 93 0 c142 0 131 -34 135
420 l3 378 -25 28 c-23 27 -30 29 -115 32 l-91 4 0 27 c0 24 7 30 57 51 70 29
131 88 167 163 15 31 33 58 39 61 25 10 143 6 155 -6z m-3789 -43 c123 -68
175 -193 152 -367 -28 -211 -97 -288 -348 -389 -123 -49 -173 -87 -173 -130 0
-63 78 -99 217 -99 121 0 173 27 201 105 17 47 20 50 52 50 30 0 35 -4 43 -35
5 -19 7 -78 5 -131 -8 -168 -64 -238 -191 -239 -60 0 -103 16 -182 70 -54 37
-98 50 -140 43 -40 -7 -47 -14 -55 -63 -5 -32 -8 -35 -43 -38 l-37 -3 0 130
c0 138 11 214 40 271 23 44 50 69 123 109 186 105 277 237 278 408 1 91 -17
148 -61 194 -47 49 -107 60 -173 31 -72 -32 -85 -77 -42 -147 46 -75 24 -195
-40 -211 -35 -9 -83 13 -99 45 -33 65 -26 212 14 291 26 50 94 107 150 125 30
10 79 14 150 12 95 -2 110 -5 159 -32z m-9941 -1045 c50 -31 82 -107 82 -198
0 -88 22 -151 45 -132 8 7 28 56 45 110 26 86 36 103 75 139 38 35 51 41 89
41 84 0 143 -75 157 -201 10 -86 33 -154 48 -145 5 4 17 30 27 59 66 203 165
274 264 190 55 -46 64 -75 70 -228 l5 -140 37 35 c34 32 38 43 52 123 22 132
62 184 148 194 55 6 128 -23 153 -61 10 -15 20 -47 23 -72 3 -33 11 -50 28
-61 32 -20 52 -11 110 49 100 104 162 96 244 -33 54 -83 96 -87 186 -18 72 55
104 65 148 44 38 -18 88 -80 125 -152 12 -24 25 -43 30 -43 5 0 42 18 83 39
212 114 268 69 318 -254 16 -102 18 -108 29 -80 6 17 28 73 48 125 20 51 46
104 59 117 53 53 105 11 153 -122 28 -77 32 -101 29 -161 -4 -85 -36 -142 -96
-173 -95 -48 -133 -32 -182 75 -16 35 -33 64 -38 64 -14 0 -38 -31 -65 -85
-35 -71 -56 -86 -124 -92 -62 -5 -368 36 -458 62 -51 15 -126 58 -190 109
l-36 29 -68 -16 c-125 -30 -216 -23 -437 33 -244 63 -348 74 -614 67 -297 -9
-502 -44 -745 -127 -60 -21 -124 -41 -142 -45 -39 -8 -76 10 -69 33 3 9 35
193 71 407 36 215 72 409 81 432 9 24 27 52 41 63 35 27 116 27 161 0z"/>
<path d="M27634 27701 c-48 -29 -77 -100 -82 -197 -3 -46 -1 -99 2 -120 7 -35
8 -36 43 -31 76 13 131 106 140 238 5 73 4 79 -20 103 -31 31 -42 32 -83 7z"/>
<path d="M35078 25310 c-65 -50 -83 -201 -74 -605 8 -378 25 -452 107 -469 17
-3 45 0 63 8 72 30 90 165 84 620 -4 255 -8 320 -22 363 -29 90 -101 128 -158
83z"/>
<path d="M24214 42045 c-114 -68 -185 -177 -202 -310 -4 -38 -6 -172 -4 -296
l4 -225 72 -18 c125 -32 463 -142 706 -229 306 -110 780 -293 850 -327 77 -39
109 -43 176 -26 33 8 147 33 254 55 178 37 366 89 398 109 8 5 -81 50 -253
127 -146 65 -263 120 -261 122 2 2 144 38 317 79 172 41 315 76 317 79 15 14
-728 329 -1179 499 -275 104 -1111 396 -1133 396 -1 0 -29 -16 -62 -35z"/>
<path d="M31106 36520 c-96 -29 -123 -132 -60 -236 101 -166 117 -215 189
-576 96 -484 197 -859 486 -1808 105 -346 173 -553 200 -608 60 -123 115 -173
369 -331 826 -516 1115 -691 1142 -691 39 0 78 40 78 79 0 46 -57 245 -94 331
-87 200 -212 328 -410 420 -238 109 -359 213 -434 373 -37 79 -270 824 -385
1232 -33 117 -109 420 -141 560 -13 61 -49 196 -79 300 -76 262 -88 321 -94
470 -4 100 -1 147 12 205 29 131 29 151 3 190 -30 44 -88 73 -158 78 -45 3
-61 0 -90 -20 -84 -57 -90 -142 -17 -259 81 -130 103 -192 152 -414 57 -261
149 -622 255 -995 44 -157 122 -436 174 -620 52 -184 110 -380 129 -436 151
-442 366 -702 722 -870 163 -77 214 -137 223 -266 5 -66 4 -67 -23 -74 -17 -4
-39 -1 -60 9 -33 16 -863 541 -991 627 -84 57 -124 101 -163 178 -45 91 -345
1054 -471 1512 -69 253 -213 835 -235 954 -27 144 -35 281 -24 409 6 65 8 134
4 153 -9 52 -58 101 -118 119 -56 17 -51 16 -91 5z"/>
<path d="M30482 36459 c-37 -24 -72 -85 -72 -124 0 -32 24 -80 61 -123 61 -69
90 -149 165 -453 134 -545 268 -1015 553 -1944 95 -310 164 -518 188 -565 64
-128 163 -217 463 -416 782 -520 1569 -987 2610 -1549 590 -319 748 -408 1020
-574 74 -46 157 -91 185 -102 27 -10 100 -47 162 -82 174 -99 220 -107 263
-48 l21 30 -193 127 c-106 70 -211 134 -233 143 -44 17 -449 232 -885 469
-1133 616 -1940 1091 -2728 1603 -449 292 -507 342 -581 493 -109 222 -488
1459 -641 2091 -120 494 -142 604 -138 695 3 62 10 96 26 127 32 61 29 104
-10 149 -63 71 -169 95 -236 53z"/>
<path d="M32295 36422 c-40 -25 -93 -86 -101 -118 -11 -43 3 -93 40 -143 81
-110 85 -122 257 -801 66 -261 167 -659 224 -883 124 -486 144 -538 259 -651
48 -47 101 -87 160 -120 132 -72 363 -231 428 -294 73 -71 115 -151 168 -322
85 -275 371 -1133 390 -1170 25 -50 56 -72 214 -154 223 -116 332 -196 425
-310 30 -38 64 -69 78 -72 14 -4 49 1 78 10 89 28 137 103 121 189 -11 58 -42
76 -178 107 -260 59 -481 176 -598 316 -59 71 -95 151 -134 299 -19 72 -59
196 -89 276 -30 80 -73 210 -96 290 -95 337 -201 531 -387 710 -80 78 -207
167 -301 212 -67 32 -141 86 -187 137 -66 73 -94 147 -177 474 -73 285 -318
1216 -376 1431 -34 125 -41 262 -18 354 22 90 15 130 -32 182 -63 69 -113 84
-168 51z"/>
<path d="M29977 36329 c-45 -24 -77 -72 -77 -116 0 -20 20 -70 52 -130 96
-181 105 -207 182 -510 145 -579 328 -1225 551 -1943 196 -631 562 -1757 680
-2090 64 -179 120 -378 139 -489 6 -33 6 -33 -26 -27 -48 9 -133 51 -223 108
-221 142 -1456 941 -1780 1153 -624 407 -867 552 -1245 738 -237 117 -247 123
-316 194 -88 89 -107 93 -169 30 -34 -34 -45 -52 -50 -90 -10 -67 2 -151 27
-182 18 -24 26 -26 62 -21 23 4 78 9 122 12 l81 6 164 -85 c369 -190 626 -345
1549 -932 382 -243 911 -578 1175 -745 264 -166 514 -325 555 -353 85 -58 154
-87 205 -87 45 0 55 20 55 108 0 78 -21 156 -80 298 -21 50 -59 160 -85 245
-53 174 -235 747 -480 1514 -391 1224 -590 1897 -782 2655 -98 390 -106 443
-73 531 38 105 26 155 -50 207 -42 28 -110 29 -163 1z"/>
<path d="M32869 36244 c-63 -61 -85 -108 -69 -150 5 -13 27 -48 49 -77 59 -77
99 -171 132 -309 55 -227 341 -1333 367 -1418 31 -100 32 -117 20 -227 -15
-132 -5 -172 54 -211 34 -22 53 -27 104 -27 52 0 67 4 88 24 36 34 50 81 37
128 -6 22 -37 81 -70 132 -33 51 -75 129 -94 174 -40 96 -150 507 -201 753
-20 94 -54 236 -76 315 -99 353 -122 507 -100 677 19 150 18 168 -11 198 -31
33 -111 74 -144 74 -18 0 -45 -17 -86 -56z"/>
<path d="M29462 36130 c-18 -11 -41 -34 -53 -52 -34 -56 -23 -107 65 -280 71
-142 84 -179 181 -513 58 -198 182 -621 276 -940 93 -319 188 -643 211 -720
22 -77 95 -297 161 -490 227 -662 293 -916 327 -1263 13 -132 18 -150 59 -184
58 -49 162 -45 212 8 20 22 24 35 23 87 -1 74 -23 128 -88 216 -25 35 -60 92
-76 126 -52 108 -1094 3515 -1110 3627 -8 55 -7 84 7 146 31 139 17 186 -67
230 -54 27 -85 28 -128 2z"/>
<path d="M33555 36083 c-31 -8 -56 -34 -77 -82 -27 -59 -19 -94 51 -221 82
-146 86 -157 147 -415 175 -729 368 -1395 840 -2895 64 -201 74 -263 60 -382
-12 -111 5 -151 78 -187 94 -47 181 -23 226 62 34 65 24 102 -55 188 -79 86
-107 144 -180 374 -31 99 -105 331 -165 515 -153 472 -186 578 -304 990 -58
201 -135 464 -171 585 -155 524 -231 886 -254 1222 -13 182 -30 219 -116 242
-42 11 -48 12 -80 4z"/>
<path d="M28977 35810 c-75 -69 -74 -116 4 -235 85 -129 100 -169 224 -595 31
-107 151 -510 265 -895 230 -772 450 -1527 450 -1544 0 -20 -38 -33 -62 -20
-13 7 -180 113 -373 237 -593 382 -922 581 -1200 727 -165 86 -224 131 -275
204 -59 88 -99 91 -169 16 -46 -50 -55 -84 -49 -186 3 -63 7 -74 32 -96 27
-23 32 -24 121 -17 63 4 104 3 131 -6 62 -20 352 -162 460 -225 94 -55 1131
-725 1337 -864 142 -96 180 -114 218 -106 l32 7 -6 87 c-4 75 -31 171 -202
736 -208 688 -352 1172 -509 1705 -52 179 -107 359 -121 400 -66 192 -88 342
-73 491 11 110 1 148 -49 186 -24 19 -50 28 -88 31 -51 4 -55 3 -98 -38z"/>
<path d="M28613 35416 c-93 -42 -93 -173 2 -316 60 -92 77 -135 151 -389 36
-124 127 -433 202 -686 149 -503 143 -473 131 -707 -4 -66 -4 -67 35 -107 78
-80 145 -89 204 -28 53 55 65 116 37 183 -8 19 -41 72 -73 117 -33 45 -65 92
-71 105 -12 22 -385 1243 -421 1377 -19 70 -25 149 -21 277 3 70 -19 139 -52
166 -24 20 -88 24 -124 8z"/>
<path d="M28140 34552 c-55 -27 -80 -74 -80 -149 0 -65 17 -124 41 -139 8 -5
55 -9 104 -9 119 -1 152 -19 277 -148 87 -91 100 -101 132 -101 39 0 77 24
110 68 28 36 29 154 4 206 -26 52 -52 63 -158 70 -72 4 -107 12 -140 29 -52
26 -112 81 -142 129 -21 34 -64 62 -95 62 -10 0 -34 -8 -53 -18z"/>
<path d="M27994 34161 c-61 -37 -101 -123 -90 -194 18 -109 65 -145 166 -127
150 27 263 -37 412 -232 72 -95 95 -107 158 -81 54 22 85 65 100 137 9 46 8
60 -10 108 -32 86 -43 92 -175 99 -104 5 -119 8 -187 42 -73 35 -101 61 -245
220 -48 53 -77 59 -129 28z"/>
<path d="M31660 32643 c-29 -11 -50 -36 -56 -70 -5 -25 5 -67 39 -171 85 -253
528 -1666 544 -1732 15 -63 14 -119 -3 -290 -5 -47 -2 -60 17 -84 29 -37 76
-56 137 -56 64 0 110 30 140 92 31 61 23 103 -35 176 -108 140 -104 129 -262
642 -82 267 -200 645 -261 840 -62 195 -113 363 -114 374 -4 62 17 50 969
-531 914 -558 1194 -720 1765 -1023 179 -95 361 -193 405 -218 87 -49 349
-218 405 -261 19 -15 58 -32 85 -39 28 -7 90 -38 139 -69 50 -31 113 -63 140
-70 55 -14 136 -8 136 10 0 26 -120 125 -208 172 -52 28 -110 64 -130 81 -21
16 -57 36 -82 43 -25 7 -79 32 -120 55 -41 24 -140 78 -220 121 -616 331
-1561 887 -2555 1503 -555 344 -834 512 -849 511 -6 0 -18 -3 -26 -6z"/>
<path d="M27385 29003 c6 -6 87 -22 180 -38 1531 -247 3016 -770 4446 -1565
l156 -87 54 8 c30 4 62 8 71 8 35 2 78 53 84 102 l6 46 -214 91 c-257 110
-614 272 -908 412 -507 241 -993 436 -1610 644 -562 189 -1112 311 -1630 362
-187 18 -649 30 -635 17z"/>
<path d="M28005 25166 c-16 -7 -41 -25 -54 -39 -49 -54 -7 -151 83 -193 28
-13 58 -24 67 -24 28 0 301 -78 472 -135 347 -115 692 -257 1262 -520 1175
-542 1942 -836 2906 -1116 802 -232 1072 -287 1819 -369 304 -34 435 -47 755
-74 34 -3 44 -2 30 4 -11 5 -164 30 -340 55 -1324 190 -1941 353 -3020 800
-483 200 -785 333 -1695 745 -859 388 -1190 523 -1858 757 -136 47 -269 94
-297 104 -59 22 -90 23 -130 5z"/>
</g>
</svg>
