<?xml version="1.0" encoding="UTF-8" standalone="no"?>
<!DOCTYPE svg PUBLIC "-//W3C//DTD SVG 1.0//EN" "http://www.w3.org/TR/2001/REC-SVG-20010904/DTD/svg10.dtd">
<svg xmlns="http://www.w3.org/2000/svg" version="1.0" viewBox="0.00 0.00 510.00 489.00">
<g stroke-width="2.00" fill="none" stroke-linecap="butt">
<path stroke="#514e2d" vector-effect="non-scaling-stroke" d="
  M 210.17 146.94
  Q 208.12 147.13 207.57 148.77
  Q 206.74 151.28 207.41 154.42"
/>
<path stroke="#514e2d" vector-effect="non-scaling-stroke" d="
  M 207.22 203.87
  Q 197.44 195.34 189.98 185.65"
/>
<path stroke="#514e2d" vector-effect="non-scaling-stroke" d="
  M 189.98 151.25
  L 189.96 143.78"
/>
<path stroke="#5a6387" vector-effect="non-scaling-stroke" d="
  M 293.33 258.11
  Q 302.74 262.37 311.93 263.31"
/>
<path stroke="#5a6387" vector-effect="non-scaling-stroke" d="
  M 328.07 243.30
  Q 325.36 237.97 319.27 230.24
  Q 318.22 228.91 316.05 229.00"
/>
<path stroke="#514e2d" vector-effect="non-scaling-stroke" d="
  M 212.47 259.79
  Q 233.41 259.55 253.76 266.41
  Q 254.31 266.59 254.83 266.30"
/>
<path stroke="#5a6387" vector-effect="non-scaling-stroke" d="
  M 273.67 280.55
  Q 272.92 282.19 273.51 283.82
  C 274.13 285.51 276.13 286.39 277.74 285.70
  Q 280.09 284.67 287.56 280.43"
/>
<path stroke="#5a6387" vector-effect="non-scaling-stroke" d="
  M 302.86 271.74
  Q 303.06 269.23 301.32 268.70
  Q 291.54 265.73 282.59 262.21"
/>
<path stroke="#514e2d" vector-effect="non-scaling-stroke" d="
  M 208.13 214.68
  L 190.17 197.03"
/>
<path stroke="#5a6387" vector-effect="non-scaling-stroke" d="
  M 332.20 235.66
  Q 330.78 234.32 330.42 233.81
  Q 325.85 227.23 320.79 221.01
  C 320.43 220.57 320.37 220.06 320.46 219.54"
/>
<path stroke="#5a6387" vector-effect="non-scaling-stroke" d="
  M 320.78 219.56
  Q 321.44 217.94 320.90 215.53"
/>
<path stroke="#514e2d" vector-effect="non-scaling-stroke" d="
  M 242.25 259.61
  Q 241.00 260.05 239.62 259.85
  Q 239.37 259.81 239.37 260.07
  L 239.37 260.37
  Q 239.37 260.48 239.48 260.50
  L 247.65 262.33"
/>
<path stroke="#5a6387" vector-effect="non-scaling-stroke" d="
  M 308.17 242.44
  L 308.13 240.71"
/>
<path stroke="#5a6387" vector-effect="non-scaling-stroke" d="
  M 273.74 266.38
  Q 274.40 270.72 278.88 272.79
  Q 279.35 273.01 279.29 273.53
  Q 279.24 274.01 278.76 274.09
  Q 277.05 274.34 276.50 274.52"
/>
<path stroke="#5a6387" vector-effect="non-scaling-stroke" d="
  M 307.48 247.71
  L 308.73 249.09
  Q 310.02 250.53 308.23 249.80
  Q 306.94 249.28 305.00 249.13"
/>
<path stroke="#5a6387" vector-effect="non-scaling-stroke" d="
  M 308.11 243.27
  Q 308.71 245.55 310.95 246.39
  Q 311.46 246.58 311.10 246.99
  L 310.91 247.21
  Q 310.83 247.29 310.72 247.26
  L 307.91 246.50"
/>
</g>
<path fill="#a28900" d="
  M 210.17 146.94
  Q 208.12 147.13 207.57 148.77
  Q 206.74 151.28 207.41 154.42
  L 207.22 203.87
  Q 197.44 195.34 189.98 185.65
  L 189.98 151.25
  L 189.96 143.78
  Q 190.03 139.47 190.00 135.25
  C 189.98 133.10 191.13 131.81 193.19 131.08
  Q 218.63 122.04 241.99 119.58
  C 244.08 119.36 245.77 120.88 245.78 123.00
  Q 245.80 129.30 245.76 135.35
  C 245.75 137.75 244.04 138.43 242.08 138.71
  Q 225.97 140.99 210.17 146.94
  Z"
/>
<path fill="#b3b3b3" d="
  M 332.20 235.66
  Q 330.78 234.32 330.42 233.81
  Q 325.85 227.23 320.79 221.01
  C 320.43 220.57 320.37 220.06 320.46 219.54
  Q 320.62 219.55 320.78 219.56
  Q 321.44 217.94 320.90 215.53
  C 321.60 211.63 321.33 207.94 321.31 204.03
  Q 321.19 177.01 321.25 150.36
  Q 321.26 147.82 318.71 146.88
  Q 303.09 141.13 285.53 138.53
  C 283.40 138.21 282.73 135.91 282.78 134.09
  Q 282.88 129.54 282.74 124.77
  C 282.59 120.07 284.54 119.37 288.91 119.89
  Q 311.93 122.66 335.77 131.26
  C 337.37 131.83 338.50 132.99 338.49 134.76
  Q 338.47 172.04 338.44 212.25
  C 338.44 219.58 336.54 229.21 332.20 235.66
  Z"
/>
<path fill="#00135a" d="
  M 189.96 143.78
  L 189.98 151.25
  C 182.00 147.92 176.24 152.95 177.32 160.93
  C 178.56 170.15 183.20 177.88 189.98 185.65
  Q 197.44 195.34 207.22 203.87
  Q 217.45 213.40 229.33 221.68
  Q 255.65 240.03 284.35 254.39
  Q 287.77 256.11 293.33 258.11
  Q 302.74 262.37 311.93 263.31
  Q 317.48 264.41 322.57 264.00
  Q 327.45 263.61 329.94 261.59
  Q 333.52 258.69 332.50 253.24
  Q 331.61 248.46 328.07 243.30
  Q 325.36 237.97 319.27 230.24
  Q 318.22 228.91 316.05 229.00
  L 316.69 228.29
  Q 317.01 227.94 316.72 227.56
  C 312.27 221.89 307.01 216.81 302.03 211.71
  C 300.56 210.21 299.05 207.10 297.98 204.93
  C 285.54 179.67 252.07 178.82 237.27 202.15
  Q 235.34 205.19 231.83 204.35
  Q 231.18 204.19 230.58 203.83
  Q 227.78 202.18 229.24 199.28
  Q 230.05 197.67 231.14 196.22
  C 233.91 192.55 231.44 189.83 229.39 186.90
  C 227.12 183.64 231.50 180.56 234.03 179.06
  C 238.00 176.69 240.09 184.82 245.55 182.85
  Q 252.46 180.36 251.02 173.44
  C 249.75 167.34 260.14 167.66 261.91 171.28
  C 262.35 172.17 262.66 173.20 263.27 174.00
  Q 266.12 177.81 271.47 177.34
  C 275.17 177.01 275.66 172.79 277.41 170.31
  A 2.42 2.41 -67.0 0 1 279.85 169.32
  C 282.50 169.84 287.26 169.91 287.06 173.82
  C 286.93 176.39 285.75 180.49 287.79 182.41
  C 290.45 184.94 294.65 186.14 297.89 184.01
  C 299.87 182.70 302.20 181.60 304.42 183.24
  Q 310.05 187.39 306.69 191.93
  Q 304.35 195.10 305.07 200.02
  C 306.21 207.81 314.55 201.93 317.65 207.66
  Q 320.08 212.15 316.10 215.11
  Q 315.61 215.48 316.04 215.92
  L 319.76 219.69
  Q 319.96 219.90 320.22 219.76
  Q 320.35 219.69 320.46 219.54
  C 320.37 220.06 320.43 220.57 320.79 221.01
  Q 325.85 227.23 330.42 233.81
  Q 330.78 234.32 332.20 235.66
  Q 332.12 236.32 332.43 236.76
  Q 336.07 242.09 338.10 249.01
  C 340.60 257.52 337.05 264.84 329.64 269.32
  Q 327.22 270.77 329.85 271.79
  C 333.79 273.32 340.88 275.55 339.83 281.19
  Q 338.30 289.48 337.17 298.33
  C 336.78 301.40 336.21 306.10 332.99 307.58
  C 325.96 310.80 318.55 310.03 311.17 309.93
  C 296.85 309.73 282.77 305.90 269.59 299.89
  C 259.40 295.24 249.50 291.35 238.72 288.09
  Q 237.34 287.67 237.10 289.10
  L 234.14 306.84
  A 4.42 4.42 0.0 0 1 229.17 310.49
  Q 221.71 309.44 212.96 308.30
  C 209.81 307.89 205.86 308.53 203.92 311.23
  C 202.24 313.58 205.06 318.55 207.89 318.05
  C 211.36 317.44 210.60 314.09 209.82 311.75
  A 1.23 1.23 0.0 0 1 210.97 310.13
  C 214.88 310.05 219.42 313.62 216.91 317.72
  C 214.72 321.27 209.90 321.96 206.45 319.92
  C 202.62 317.65 201.62 314.14 202.35 309.67
  Q 203.12 304.92 203.92 300.75
  A 1.82 1.81 17.2 0 0 202.86 298.75
  C 198.65 296.91 191.28 294.47 192.41 288.45
  Q 194.40 277.82 195.68 268.05
  C 196.08 265.01 198.42 262.82 201.25 261.98
  Q 206.49 260.41 212.47 259.79
  Q 233.41 259.55 253.76 266.41
  Q 254.31 266.59 254.83 266.30
  Q 255.47 267.21 255.89 267.39
  Q 263.69 270.67 271.71 274.45
  Q 273.23 275.17 273.37 276.85
  L 273.67 280.55
  Q 272.92 282.19 273.51 283.82
  C 274.13 285.51 276.13 286.39 277.74 285.70
  Q 280.09 284.67 287.56 280.43
  L 293.11 282.15
  A 1.81 1.81 0.0 0 0 295.45 280.55
  Q 295.55 279.16 296.12 277.75
  Q 296.23 277.49 296.50 277.52
  L 296.77 277.55
  Q 297.02 277.57 297.01 277.81
  Q 296.97 279.49 296.81 281.13
  Q 296.64 282.88 298.37 283.24
  A 0.70 0.69 -78.2 0 0 299.20 282.69
  Q 299.35 281.90 299.89 281.39
  A 0.27 0.27 0.0 0 1 300.35 281.60
  Q 300.16 284.42 302.78 284.11
  A 0.73 0.73 0.0 0 0 303.43 283.47
  Q 303.53 282.64 303.90 281.93
  Q 304.33 281.09 304.47 282.02
  L 304.73 283.79
  A 1.42 1.41 63.4 0 0 307.12 284.59
  C 308.45 283.29 307.68 281.50 308.37 280.53
  Q 309.42 279.04 309.22 280.85
  Q 309.03 282.50 308.97 284.15
  Q 308.93 285.22 309.97 285.47
  Q 310.31 285.55 310.65 285.43
  Q 311.82 285.03 311.99 283.81
  Q 312.27 281.88 313.20 279.92
  Q 313.60 279.08 313.59 280.01
  Q 313.57 282.09 313.18 284.02
  A 1.27 1.25 10.9 0 0 314.20 285.51
  C 315.77 285.78 316.47 283.83 316.67 282.58
  Q 316.71 282.31 316.97 282.27
  Q 317.03 282.26 317.08 282.27
  Q 317.42 282.39 317.40 282.74
  Q 317.31 284.27 318.33 285.34
  A 1.38 1.38 0.0 0 0 320.70 284.58
  L 321.17 281.25
  Q 321.21 280.99 321.45 280.87
  Q 321.63 280.78 321.73 280.88
  Q 321.94 281.08 321.95 281.38
  Q 322.00 282.74 322.00 284.07
  Q 322.01 284.68 322.53 285.00
  C 323.66 285.67 324.96 285.16 325.22 283.84
  Q 325.52 282.26 325.70 280.71
  Q 325.75 280.30 326.16 280.32
  L 326.44 280.33
  A 0.22 0.22 0.0 0 1 326.65 280.56
  Q 326.62 282.24 326.10 283.70
  A 1.03 1.03 0.0 0 0 327.25 285.06
  C 330.93 284.43 329.53 280.44 330.74 278.04
  Q 331.21 277.12 331.22 278.16
  Q 331.25 280.00 331.00 281.57
  Q 330.22 286.38 333.51 282.98
  Q 334.45 282.01 334.74 279.69
  A 0.36 0.35 8.7 0 1 335.15 279.39
  L 335.47 279.45
  Q 335.49 279.45 335.48 279.47
  Q 335.26 280.75 335.49 281.98
  A 0.65 0.64 76.5 0 0 336.31 282.49
  C 339.42 281.52 338.30 278.07 336.29 276.71
  Q 331.64 273.57 325.32 272.60
  Q 315.25 271.05 305.23 269.68
  Q 304.74 269.61 304.41 269.98
  L 302.86 271.74
  Q 303.06 269.23 301.32 268.70
  Q 291.54 265.73 282.59 262.21
  Q 278.10 259.94 274.20 257.75
  Q 245.41 241.56 218.32 222.68
  Q 215.67 220.83 208.13 214.68
  L 190.17 197.03
  Q 187.68 194.31 185.07 191.18
  Q 177.00 181.50 172.19 169.92
  Q 168.87 161.90 170.71 154.75
  C 172.96 146.00 181.39 141.74 189.96 143.78
  Z
  M 220.30 268.04
  Q 219.44 267.99 218.83 268.59
  Q 218.41 269.01 218.65 269.53
  Q 218.91 270.09 219.47 269.82
  Q 220.75 269.19 221.24 267.99
  C 221.46 267.45 221.76 267.07 222.28 266.80
  Q 223.03 266.41 222.20 266.24
  Q 221.49 266.09 220.96 266.56
  Q 220.76 266.74 220.79 267.00
  L 220.85 267.45
  A 0.52 0.52 0.0 0 1 220.30 268.04
  Z
  M 224.77 266.46
  A 0.40 0.40 0.0 0 0 224.41 267.08
  L 224.93 267.82
  A 0.77 0.77 0.0 0 0 226.22 267.78
  Q 226.39 267.52 226.36 267.22
  Q 226.34 266.95 226.11 266.84
  Q 225.47 266.52 224.77 266.46
  Z
  M 221.59 270.04
  Q 219.79 271.81 218.06 273.69
  A 1.06 1.05 42.0 0 0 218.14 275.19
  Q 219.01 275.96 219.82 275.40
  Q 220.18 275.15 220.26 274.72
  C 220.72 272.27 223.25 271.53 224.31 269.11
  Q 224.56 268.53 223.93 268.48
  L 222.77 268.39
  Q 222.21 268.35 222.17 268.91
  C 222.13 269.36 221.91 269.73 221.59 270.04
  Z
  M 237.6077 269.0300
  A 0.82 0.62 -13.4 0 0 236.6663 268.6169
  A 0.82 0.62 -13.4 0 0 236.0123 269.4100
  A 0.82 0.62 -13.4 0 0 236.9537 269.8231
  A 0.82 0.62 -13.4 0 0 237.6077 269.0300
  Z
  M 227.64 270.08
  Q 227.62 268.31 225.97 268.72
  Q 225.22 268.92 225.57 269.61
  Q 226.02 270.51 226.92 270.68
  A 0.61 0.61 0.0 0 0 227.64 270.08
  Z
  M 240.25 269.95
  L 241.06 270.36
  Q 241.61 270.64 241.79 270.05
  Q 241.93 269.61 241.51 269.33
  Q 240.79 268.85 240.18 269.37
  Q 239.78 269.72 240.25 269.95
  Z
  M 238.26 270.81
  A 0.20 0.19 -80.8 0 0 238.06 270.53
  Q 236.14 270.78 235.52 272.17
  C 234.81 273.77 236.20 275.21 235.39 277.09
  A 0.76 0.75 28.5 0 0 235.67 278.01
  Q 236.00 278.22 236.39 278.29
  Q 237.12 278.42 237.30 277.70
  Q 237.90 275.24 237.75 272.79
  C 237.70 272.10 237.97 271.42 238.26 270.81
  Z
  M 238.53 274.04
  Q 238.41 274.24 238.64 274.23
  Q 240.37 274.12 240.74 272.62
  Q 241.02 271.48 239.94 270.86
  Q 239.18 270.43 239.25 271.29
  Q 239.36 272.74 238.53 274.04
  Z
  M 251.4380 271.3974
  A 0.97 0.52 -3.7 0 0 250.4364 270.9411
  A 0.97 0.52 -3.7 0 0 249.5020 271.5226
  A 0.97 0.52 -3.7 0 0 250.5036 271.9789
  A 0.97 0.52 -3.7 0 0 251.4380 271.3974
  Z
  M 253.10 271.54
  Q 253.72 271.90 254.21 272.46
  Q 254.92 273.28 254.99 272.20
  L 255.02 271.75
  Q 255.06 271.18 254.50 271.16
  L 253.22 271.12
  A 0.22 0.22 0.0 0 0 253.10 271.54
  Z
  M 224.53 271.91
  L 222.88 272.07
  A 0.28 0.28 0.0 0 0 222.63 272.37
  L 222.88 275.06
  A 1.54 0.89 84.6 0 0 223.91 276.51
  L 224.35 276.47
  A 1.54 0.89 84.6 0 0 225.09 274.85
  L 224.84 272.16
  A 0.28 0.28 0.0 0 0 224.53 271.91
  Z
  M 251.1245 273.7019
  A 0.27 0.27 0.0 0 0 250.9290 273.3739
  L 249.5330 273.0206
  A 0.27 0.27 0.0 0 0 249.2050 273.2161
  L 247.6155 279.4981
  A 0.27 0.27 0.0 0 0 247.8110 279.8261
  L 249.2070 280.1794
  A 0.27 0.27 0.0 0 0 249.5350 279.9839
  L 251.1245 273.7019
  Z
  M 252.32 273.81
  C 252.74 274.58 253.25 275.51 254.16 275.72
  Q 254.85 275.88 254.94 275.18
  Q 255.03 274.51 254.73 273.93
  A 0.78 0.78 0.0 0 0 254.02 273.50
  L 252.49 273.53
  Q 252.18 273.54 252.32 273.81
  Z
  M 219.7534 276.9124
  A 0.94 0.65 -21.7 0 0 218.6397 276.6561
  A 0.94 0.65 -21.7 0 0 218.0066 277.6076
  A 0.94 0.65 -21.7 0 0 219.1203 277.8639
  A 0.94 0.65 -21.7 0 0 219.7534 276.9124
  Z
  M 222.13 277.17
  A 0.21 0.20 -23.3 0 0 222.01 277.46
  Q 222.38 278.15 223.15 278.42
  Q 223.79 278.64 223.93 277.98
  Q 224.08 277.21 223.35 277.07
  Q 222.74 276.95 222.13 277.17
  Z
  M 235.3701 279.4051
  A 1.10 0.60 -13.4 0 0 234.1610 279.0763
  A 1.10 0.60 -13.4 0 0 233.2299 279.9149
  A 1.10 0.60 -13.4 0 0 234.4390 280.2437
  A 1.10 0.60 -13.4 0 0 235.3701 279.4051
  Z
  M 238.5330 280.8777
  A 0.85 0.57 66.2 0 0 238.7115 279.8700
  A 0.85 0.57 66.2 0 0 237.8470 279.3223
  A 0.85 0.57 66.2 0 0 237.6685 280.3300
  A 0.85 0.57 66.2 0 0 238.5330 280.8777
  Z
  M 249.3238 281.4665
  A 1.16 0.54 -9.6 0 0 248.0899 281.1276
  A 1.16 0.54 -9.6 0 0 247.0362 281.8535
  A 1.16 0.54 -9.6 0 0 248.2701 282.1924
  A 1.16 0.54 -9.6 0 0 249.3238 281.4665
  Z
  M 251.56 281.46
  Q 251.29 281.44 251.04 281.37
  Q 250.37 281.21 250.65 281.83
  Q 250.95 282.50 251.56 282.79
  Q 252.24 283.11 252.49 282.39
  Q 252.62 282.00 252.31 281.76
  Q 251.99 281.50 251.56 281.46
  Z
  M 214.51 290.52
  L 214.54 285.82
  Q 214.54 284.65 213.37 284.76
  Q 213.12 284.79 212.87 284.87
  Q 211.60 285.28 211.37 286.60
  L 210.53 291.44
  Q 210.46 291.86 210.11 291.62
  L 209.80 291.41
  Q 209.68 291.34 209.70 291.20
  L 210.33 286.03
  Q 210.46 284.92 209.35 284.94
  Q 208.78 284.95 208.31 285.18
  Q 207.09 285.76 206.87 287.10
  L 205.83 293.54
  Q 205.74 294.07 205.21 293.97
  L 204.96 293.92
  Q 204.96 293.92 204.98 293.78
  L 205.98 286.59
  A 1.11 1.10 -7.1 0 0 204.47 285.42
  Q 202.42 286.24 202.27 288.84
  Q 202.25 289.20 201.90 289.20
  L 201.59 289.20
  Q 201.24 289.20 201.25 288.84
  L 201.26 287.21
  A 1.09 1.08 14.2 0 0 200.67 286.23
  Q 199.61 285.68 198.86 286.70
  Q 198.00 287.88 197.82 289.47
  Q 197.77 289.93 197.36 290.13
  Q 196.79 290.43 196.75 289.78
  L 196.70 288.67
  Q 196.66 288.02 196.02 287.92
  Q 195.74 287.88 195.46 287.96
  Q 194.66 288.22 194.39 288.95
  C 191.07 297.72 216.02 299.99 220.91 300.52
  C 224.81 300.94 228.48 302.07 232.15 303.37
  A 0.98 0.98 0.0 0 0 233.44 302.61
  L 235.77 288.52
  A 1.25 1.25 0.0 0 0 234.57 287.06
  Q 233.49 287.04 233.10 288.34
  Q 232.81 289.28 232.28 290.00
  Q 231.60 290.94 231.84 289.80
  Q 232.54 286.40 229.96 286.16
  A 0.88 0.87 13.2 0 0 229.06 286.71
  L 228.23 288.74
  Q 228.16 288.90 227.99 288.86
  L 227.66 288.78
  Q 227.37 288.71 227.44 288.42
  L 227.77 287.03
  A 1.08 1.07 -68.1 0 0 227.28 285.86
  Q 225.95 285.07 224.93 286.07
  Q 224.47 286.52 224.36 287.15
  Q 224.28 287.60 223.86 287.75
  Q 223.19 287.99 223.21 287.27
  L 223.26 286.25
  Q 223.28 285.74 222.89 285.42
  C 221.79 284.50 220.34 285.33 220.08 286.60
  Q 219.85 287.76 219.28 288.93
  Q 219.26 288.98 219.20 288.97
  L 218.79 288.89
  Q 218.66 288.87 218.66 288.73
  L 218.72 285.53
  Q 218.73 285.08 218.31 284.90
  C 217.19 284.44 216.00 285.17 215.74 286.34
  Q 215.25 288.53 214.89 290.65
  Q 214.89 290.67 214.87 290.67
  L 214.61 290.63
  Q 214.51 290.61 214.51 290.52
  Z
  M 302.6205 301.8096
  A 5.69 3.17 90.7 0 0 305.8598 296.1587
  A 5.69 3.17 90.7 0 0 302.7595 290.4304
  A 5.69 3.17 90.7 0 0 299.5202 296.0813
  A 5.69 3.17 90.7 0 0 302.6205 301.8096
  Z
  M 312.12 300.76
  L 311.46 300.76
  Q 311.19 300.76 311.16 301.03
  L 311.12 301.32
  A 0.30 0.30 0.0 0 0 311.42 301.66
  L 316.38 301.62
  Q 317.29 301.61 316.60 301.02
  Q 316.21 300.69 315.70 300.70
  Q 314.75 300.71 314.75 299.76
  L 314.75 292.00
  Q 314.75 289.24 312.95 291.33
  Q 312.32 292.07 311.53 292.64
  Q 310.52 293.37 311.77 293.27
  L 312.23 293.23
  Q 313.03 293.17 313.03 293.98
  L 313.01 299.88
  Q 313.01 300.77 312.12 300.76
  Z
  M 323.07 300.77
  L 322.41 300.77
  A 0.24 0.24 0.0 0 0 322.17 300.98
  L 322.13 301.25
  A 0.37 0.37 0.0 0 0 322.50 301.67
  L 327.67 301.65
  Q 327.85 301.65 327.87 301.46
  L 327.90 301.14
  A 0.35 0.35 0.0 0 0 327.42 300.79
  Q 326.67 301.09 326.22 300.47
  Q 325.90 300.04 325.92 299.47
  Q 326.02 295.24 325.89 291.27
  A 0.75 0.75 0.0 0 0 324.61 290.76
  L 322.67 292.68
  Q 322.08 293.27 322.91 293.23
  Q 324.13 293.18 324.12 294.49
  Q 324.10 297.52 323.97 299.91
  Q 323.93 300.76 323.07 300.77
  Z
  M 289.99 298.79
  A 0.58 0.58 0.0 0 1 290.33 297.89
  Q 294.63 296.86 294.43 293.47
  C 294.19 289.42 287.74 289.84 289.05 294.43
  Q 289.25 295.13 290.15 294.67
  A 0.78 0.78 0.0 0 0 290.42 293.49
  Q 290.09 293.06 290.02 292.56
  Q 289.92 291.80 290.68 291.72
  L 291.19 291.67
  Q 291.99 291.59 292.27 292.35
  Q 292.86 293.97 292.08 295.59
  A 2.20 2.18 -89.5 0 1 291.03 296.63
  Q 288.31 297.94 288.78 301.13
  Q 288.90 301.89 289.42 301.33
  Q 290.47 300.23 291.56 301.35
  A 1.52 1.51 -53.4 0 0 293.99 300.99
  Q 294.52 299.98 294.24 298.62
  Q 294.10 297.91 293.65 298.49
  C 292.72 299.69 291.00 300.22 289.99 298.79
  Z
  M 229.69 306.27
  L 229.24 304.30
  Q 229.12 303.76 228.58 303.65
  Q 227.69 303.45 226.96 304.07
  Q 226.47 304.48 226.07 303.98
  L 225.19 302.84
  A 0.71 0.70 -34.2 0 0 224.27 302.67
  L 223.27 303.27
  Q 222.66 303.64 222.20 303.09
  L 221.46 302.23
  Q 220.95 301.62 220.39 302.19
  L 219.56 303.04
  A 0.42 0.42 0.0 0 1 218.95 303.03
  Q 218.78 302.84 218.73 302.61
  C 218.52 301.61 217.49 301.03 216.57 301.65
  Q 216.13 301.95 216.03 302.47
  Q 215.90 303.14 215.67 303.77
  Q 215.38 304.54 215.20 303.74
  Q 215.03 303.02 215.03 302.28
  Q 215.04 301.73 214.63 301.35
  Q 214.02 300.78 213.30 301.11
  Q 212.86 301.32 212.69 301.78
  Q 212.51 302.27 212.23 302.74
  Q 211.64 303.74 211.64 302.58
  Q 211.63 301.20 210.60 300.53
  Q 209.99 300.14 209.53 300.69
  Q 208.89 301.43 208.71 302.48
  Q 208.68 302.64 208.53 302.68
  Q 208.37 302.73 208.20 302.52
  Q 207.98 302.25 208.02 301.91
  Q 208.09 301.25 207.79 300.67
  Q 207.34 299.79 206.31 299.96
  A 0.97 0.95 -0.1 0 0 205.51 300.75
  L 204.32 307.79
  A 0.35 0.34 84.6 0 0 204.77 308.17
  Q 211.87 305.56 218.93 307.53
  C 219.92 307.81 220.75 307.68 221.72 307.60
  Q 222.23 307.56 222.66 307.81
  Q 225.30 309.34 228.41 308.95
  Q 228.91 308.89 229.00 308.40
  Q 229.06 308.07 229.36 307.93
  Q 229.86 307.71 230.04 308.23
  Q 230.30 309.00 231.06 308.97
  Q 231.64 308.95 231.97 308.46
  Q 233.00 306.89 231.80 305.06
  Q 231.44 304.52 230.95 304.95
  Q 230.36 305.45 230.16 306.27
  Q 229.91 307.28 229.69 306.27
  Z"
/>
<path fill="#00135a" d="
  M 210.17 146.94
  L 228.61 154.12
  Q 229.68 154.54 228.57 154.83
  L 224.98 155.79
  Q 223.97 156.06 224.96 156.40
  Q 226.58 156.95 227.94 157.84
  Q 228.56 158.25 227.84 158.43
  Q 225.76 158.98 223.73 159.37
  Q 222.12 159.69 219.84 158.76
  Q 213.84 156.32 207.41 154.42
  Q 206.74 151.28 207.57 148.77
  Q 208.12 147.13 210.17 146.94
  Z"
/>
<circle fill="#a28900" cx="239.54" cy="164.80" r="6.97"/>
<path fill="#00135a" d="
  M 286.91 229.10
  Q 287.30 228.29 286.80 227.47
  A 2.73 2.71 86.5 0 0 285.67 226.46
  Q 280.66 224.09 279.15 219.30
  Q 276.15 209.78 273.89 199.88
  C 273.60 198.64 273.06 197.86 272.50 196.76
  A 1.22 1.22 0.0 0 1 273.22 195.05
  Q 274.42 194.68 274.98 195.51
  C 275.49 196.24 274.85 198.99 275.15 200.26
  Q 277.41 209.92 280.57 219.78
  C 281.22 221.82 282.46 223.37 284.45 224.22
  Q 288.61 226.00 289.09 230.96
  A 0.59 0.58 12.2 0 1 288.21 231.52
  Q 282.39 228.12 276.91 224.53
  Q 275.68 223.73 275.22 222.39
  Q 271.36 211.13 268.93 199.42
  C 268.67 198.21 267.36 196.78 267.64 195.70
  Q 267.86 194.85 268.80 194.84
  A 1.45 1.45 0.0 0 1 270.23 196.54
  Q 269.91 198.33 270.28 200.09
  Q 272.59 211.00 276.49 221.92
  Q 276.83 222.87 277.70 223.43
  Q 282.21 226.35 286.68 229.16
  A 0.16 0.16 0.0 0 0 286.91 229.10
  Z"
/>
<path fill="#00135a" d="
  M 308.11 243.27
  Q 308.71 245.55 310.95 246.39
  Q 311.46 246.58 311.10 246.99
  L 310.91 247.21
  Q 310.83 247.29 310.72 247.26
  L 307.91 246.50
  Q 306.25 245.59 304.71 244.47
  Q 302.94 243.18 301.13 242.23
  Q 286.66 234.63 273.11 225.72
  Q 271.05 224.36 270.30 222.14
  Q 266.68 211.36 263.79 199.47
  C 263.55 198.49 263.04 197.74 262.51 196.91
  A 0.93 0.92 45.4 0 1 262.51 195.90
  Q 262.87 195.32 263.51 195.19
  A 1.37 1.37 0.0 0 1 265.14 196.76
  C 264.69 199.37 265.49 201.64 266.14 204.23
  Q 268.34 213.05 271.33 221.48
  Q 271.98 223.30 273.44 224.29
  Q 287.93 234.13 305.07 242.92
  Q 306.78 243.79 308.11 243.27
  Z"
/>
<path fill="#00135a" d="
  M 294.64 231.80
  C 295.57 234.78 298.50 236.22 301.38 236.67
  A 1.14 1.13 -80.9 0 1 302.33 237.99
  Q 302.12 239.19 300.91 239.20
  Q 300.40 239.20 300.06 238.82
  Q 298.22 236.78 295.57 235.64
  Q 294.54 235.20 294.17 234.18
  Q 292.53 229.72 291.16 224.82
  Q 290.66 223.04 289.57 221.87
  C 287.44 219.61 283.84 219.04 282.99 215.59
  Q 281.05 207.71 279.03 199.99
  Q 278.73 198.82 278.01 197.83
  Q 277.61 197.27 277.82 196.62
  Q 278.09 195.82 278.88 195.67
  A 1.33 1.33 0.0 0 1 280.44 197.03
  C 280.40 198.10 280.11 198.90 280.39 200.00
  Q 282.33 207.46 284.29 215.05
  C 284.50 215.88 284.89 216.55 285.38 217.24
  A 2.09 2.04 85.5 0 0 286.11 217.88
  C 289.22 219.50 291.34 221.48 292.43 224.86
  Q 293.51 228.22 294.64 231.80
  Z"
/>
<path fill="#00135a" d="
  M 271.65 241.63
  Q 271.65 240.99 271.42 240.33
  Q 264.00 219.16 259.39 200.96
  Q 259.02 199.50 258.15 198.20
  Q 257.87 197.77 258.03 197.29
  Q 258.29 196.48 259.19 196.33
  A 1.24 1.24 0.0 0 1 260.61 197.85
  C 260.43 198.55 260.20 199.02 260.37 199.78
  Q 261.64 205.17 263.38 210.98
  Q 268.23 227.17 273.37 243.28
  Q 273.85 244.78 272.33 244.46
  A 1.26 1.12 -18.6 0 1 271.93 244.29
  Q 257.82 235.20 246.14 228.05
  Q 244.03 226.75 241.66 225.61
  Q 241.19 225.38 240.69 225.48
  L 239.74 225.65
  Q 238.95 225.79 238.90 224.98
  Q 238.85 224.03 239.10 223.26
  Q 239.30 222.67 239.91 222.81
  C 240.96 223.06 241.55 224.09 242.58 224.55
  Q 246.68 226.36 250.70 229.00
  Q 260.32 235.33 270.87 242.07
  Q 271.66 242.58 271.65 241.63
  Z"
/>
<path fill="#00135a" d="
  M 289.01 214.15
  Q 289.38 215.24 290.05 216.28
  Q 290.94 217.67 289.41 218.15
  A 1.21 1.20 83.0 0 1 287.85 216.93
  Q 287.94 215.42 287.63 214.13
  Q 286.15 208.05 284.13 200.52
  Q 283.98 199.95 283.57 199.52
  Q 283.10 199.01 283.04 198.38
  Q 282.95 197.34 284.01 196.95
  Q 284.66 196.71 285.27 197.09
  Q 285.82 197.43 285.79 198.08
  C 285.72 199.27 285.64 200.41 285.86 201.59
  Q 287.22 208.79 289.01 214.15
  Z"
/>
<path fill="#a28900" d="
  M 190.17 197.03
  L 208.13 214.68
  C 212.25 235.08 225.02 249.01 242.25 259.61
  Q 241.00 260.05 239.62 259.85
  Q 239.37 259.81 239.37 260.07
  L 239.37 260.37
  Q 239.37 260.48 239.48 260.50
  L 247.65 262.33
  L 254.83 266.30
  Q 254.31 266.59 253.76 266.41
  Q 233.41 259.55 212.47 259.79
  Q 193.81 240.89 190.53 216.00
  Q 189.56 208.66 190.17 197.03
  Z"
/>
<path fill="#00135a" d="
  M 254.72 202.65
  Q 254.22 201.08 253.59 199.41
  A 0.95 0.95 0.0 0 1 254.17 198.17
  Q 255.24 197.80 255.75 198.59
  C 256.31 199.44 255.66 201.17 256.02 202.34
  Q 260.44 216.73 264.71 230.76
  C 265.25 232.54 266.16 233.77 266.83 235.40
  A 0.99 0.97 -41.6 0 1 266.77 236.26
  Q 266.41 236.90 265.88 236.97
  Q 264.69 237.13 264.41 235.96
  C 264.02 234.34 264.10 232.67 263.61 231.07
  Q 259.24 216.86 254.72 202.65
  Z"
/>
<path fill="#00135a" d="
  M 296.77 226.49
  Q 293.16 216.10 290.30 203.88
  C 290.01 202.63 289.43 201.70 288.93 200.57
  A 1.36 1.34 40.7 0 1 288.86 199.71
  Q 289.14 198.53 289.76 198.55
  Q 290.99 198.58 291.11 199.81
  C 291.39 202.64 291.85 205.60 292.62 208.36
  Q 296.00 220.48 299.47 230.76
  Q 299.90 232.02 300.84 232.99
  A 1.14 1.14 0.0 0 1 300.49 234.83
  Q 299.78 235.15 299.09 234.89
  Q 298.51 234.67 298.45 234.03
  Q 298.14 230.43 296.77 226.49
  Z"
/>
<path fill="#00135a" d="
  M 257.44 229.28
  Q 258.25 229.84 257.98 228.89
  Q 254.38 216.14 250.99 205.22
  Q 250.56 203.82 249.74 202.48
  A 1.17 1.17 0.0 0 1 250.37 200.75
  Q 250.98 200.56 251.56 200.80
  Q 252.07 201.02 252.04 201.57
  C 251.98 202.95 251.97 204.15 252.37 205.51
  Q 256.22 218.51 260.01 231.04
  Q 260.09 231.32 260.02 231.62
  Q 259.80 232.59 258.97 232.04
  Q 252.22 227.58 245.13 223.17
  Q 242.86 221.76 240.49 221.81
  A 0.58 0.58 0.0 0 1 239.97 221.49
  Q 239.50 220.53 239.93 219.39
  Q 240.18 218.74 240.88 218.83
  Q 241.57 218.93 242.00 219.53
  Q 242.37 220.04 242.92 220.35
  Q 250.44 224.48 257.44 229.28
  Z"
/>
<path fill="#00135a" d="
  M 248.67 208.16
  C 249.94 212.75 251.05 217.89 253.45 222.15
  A 1.25 1.25 0.0 0 1 252.65 223.98
  Q 251.98 224.14 251.45 223.66
  Q 250.96 223.20 250.99 222.55
  C 251.04 221.51 251.05 220.59 250.77 219.58
  Q 249.27 214.22 247.71 209.17
  Q 247.28 207.78 246.46 206.42
  Q 245.73 205.21 246.82 204.43
  A 1.01 1.01 0.0 0 1 248.41 205.34
  Q 248.29 206.81 248.67 208.16
  Z"
/>
<path fill="#00135a" d="
  M 246.42 213.63
  Q 248.26 213.48 248.07 215.30
  Q 247.94 216.53 246.75 216.50
  A 0.81 0.79 -16.3 0 1 246.11 216.16
  Q 244.91 214.36 242.76 214.38
  Q 242.41 214.38 242.24 214.08
  Q 241.76 213.24 242.31 212.32
  Q 242.96 211.22 243.89 212.09
  L 245.02 213.14
  Q 245.62 213.69 246.42 213.63
  Z"
/>
<path fill="#00135a" d="
  M 245.93 220.35
  C 245.17 219.23 243.79 217.78 242.29 217.98
  Q 240.60 218.22 240.72 216.52
  Q 240.81 215.25 241.99 215.12
  A 0.89 0.89 0.0 0 1 242.83 215.51
  Q 244.40 217.90 247.05 217.75
  A 0.79 0.78 -13.6 0 1 247.81 218.21
  Q 248.24 219.21 247.82 220.18
  A 1.09 1.09 0.0 0 1 245.93 220.35
  Z"
/>
<path fill="#00135a" d="
  M 320.90 215.53
  Q 321.44 217.94 320.78 219.56
  Q 320.26 217.72 320.90 215.53
  Z"
/>
<path fill="#00135a" d="
  M 307.48 247.71
  L 308.73 249.09
  Q 310.02 250.53 308.23 249.80
  Q 306.94 249.28 305.00 249.13
  Q 304.07 248.23 303.04 247.34
  Q 301.99 246.43 300.82 245.80
  Q 288.31 238.98 275.09 230.67
  Q 274.34 230.21 274.60 231.05
  Q 276.68 237.86 278.61 244.13
  Q 279.09 245.70 280.14 247.14
  A 1.22 1.22 0.0 0 1 279.75 248.93
  Q 279.07 249.30 278.21 248.95
  Q 277.68 248.74 277.72 248.17
  C 277.81 246.82 277.80 245.71 277.39 244.40
  Q 275.10 237.00 272.69 229.57
  Q 272.52 229.02 272.83 228.54
  A 0.75 0.74 32.7 0 1 273.85 228.32
  Q 287.93 237.35 300.75 244.44
  Q 302.33 245.31 304.12 246.02
  Q 305.90 246.72 307.48 247.71
  Z"
/>
<path fill="#b3b3b3" d="
  M 316.05 229.00
  Q 318.22 228.91 319.27 230.24
  Q 325.36 237.97 328.07 243.30
  Q 321.57 254.11 311.93 263.31
  Q 302.74 262.37 293.33 258.11
  Q 294.02 257.52 294.12 257.02
  Q 294.25 256.37 293.58 256.37
  L 293.06 256.37
  Q 292.63 256.37 292.95 256.08
  L 300.13 249.51
  Q 300.57 249.10 301.18 249.11
  L 305.00 249.13
  Q 306.94 249.28 308.23 249.80
  Q 310.02 250.53 308.73 249.09
  L 307.48 247.71
  Q 308.49 247.07 307.91 246.50
  L 310.72 247.26
  Q 310.83 247.29 310.91 247.21
  L 311.10 246.99
  Q 311.46 246.58 310.95 246.39
  Q 308.71 245.55 308.11 243.27
  Q 308.25 242.74 308.17 242.44
  L 308.13 240.71
  L 316.05 229.00
  Z"
/>
<path fill="#00135a" d="
  M 308.13 240.71
  L 308.17 242.44
  Q 307.55 242.84 307.11 242.82
  Q 306.46 242.79 306.87 242.29
  L 308.13 240.71
  Z"
/>
<path fill="#00135a" d="
  M 242.25 259.61
  Q 258.16 262.57 272.92 270.06
  A 0.48 0.48 0.0 0 0 273.61 269.51
  Q 273.26 268.14 273.74 266.38
  Q 274.40 270.72 278.88 272.79
  Q 279.35 273.01 279.29 273.53
  Q 279.24 274.01 278.76 274.09
  Q 277.05 274.34 276.50 274.52
  Q 275.80 273.59 274.80 273.06
  Q 274.13 272.71 274.18 273.47
  Q 274.22 274.09 273.98 274.72
  Q 273.76 275.29 273.61 274.69
  Q 273.45 274.06 273.64 273.46
  A 1.32 1.31 -67.4 0 0 273.00 271.90
  Q 260.60 265.33 247.65 262.33
  L 239.48 260.50
  Q 239.37 260.48 239.37 260.37
  L 239.37 260.07
  Q 239.37 259.81 239.62 259.85
  Q 241.00 260.05 242.25 259.61
  Z"
/>
<path fill="#b3b3b3" d="
  M 282.59 262.21
  Q 291.54 265.73 301.32 268.70
  Q 303.06 269.23 302.86 271.74
  Q 295.85 276.95 287.56 280.43
  Q 280.09 284.67 277.74 285.70
  C 276.13 286.39 274.13 285.51 273.51 283.82
  Q 272.92 282.19 273.67 280.55
  Q 274.43 276.60 276.50 274.52
  Q 277.05 274.34 278.76 274.09
  Q 279.24 274.01 279.29 273.53
  Q 279.35 273.01 278.88 272.79
  Q 274.40 270.72 273.74 266.38
  L 282.59 262.21
  Z"
/>
<rect fill="#00135a" x="-1.04" y="-4.69" transform="translate(303.06,296.21) rotate(-0.3)" width="2.08" height="9.38" rx="1.01"/>
<path fill="#00135a" d="
  M 301.26 313.54
  Q 301.71 313.59 302.09 313.58
  Q 302.18 313.58 302.11 313.63
  Q 302.05 313.67 302.12 313.69
  Q 302.23 313.72 302.12 313.71
  Q 294.71 313.49 290.45 312.49
  Q 274.08 308.62 259.50 301.65
  Q 250.12 297.17 241.83 294.80
  Q 240.92 294.54 240.96 293.60
  Q 240.97 293.26 241.24 292.96
  A 0.69 0.69 0.0 0 1 241.97 292.76
  C 246.67 294.21 251.38 295.77 255.77 297.82
  C 271.82 305.33 285.18 311.59 301.26 313.54
  Z"
/>
<path fill="#a28900" d="
  M 274.56 378.45
  L 274.53 377.95
  Q 274.40 375.54 271.99 375.44
  Q 259.97 374.96 247.97 374.37
  C 243.58 374.15 240.28 371.83 239.64 367.35
  C 238.68 360.62 239.33 352.40 247.59 351.62
  Q 260.71 350.38 275.35 351.49
  Q 285.59 352.27 284.42 363.13
  Q 284.36 363.69 283.79 363.69
  L 273.77 363.69
  Q 273.10 363.69 273.11 363.02
  Q 273.15 360.19 270.44 360.03
  Q 262.12 359.56 252.86 360.08
  A 2.33 2.33 0.0 0 0 250.66 362.33
  L 250.65 362.68
  Q 250.56 365.39 253.26 365.53
  Q 263.22 366.07 272.84 366.32
  C 278.18 366.46 284.69 367.10 285.63 373.80
  C 286.74 381.61 285.91 389.53 276.18 390.13
  Q 266.67 390.72 255.21 390.50
  C 245.95 390.33 237.91 389.76 239.01 377.83
  Q 239.07 377.22 239.69 377.22
  L 249.77 377.24
  A 0.62 0.62 0.0 0 1 250.39 377.90
  Q 250.18 381.27 253.55 381.42
  Q 261.96 381.79 271.79 381.47
  Q 274.71 381.37 274.56 378.45
  Z"
/>
<path fill="#a28900" d="
  M 181.49 387.43
  L 200.39 351.75
  A 0.36 0.36 0.0 0 1 200.71 351.56
  L 218.41 351.56
  A 0.36 0.36 0.0 0 1 218.73 351.75
  L 238.44 389.47
  A 0.36 0.36 0.0 0 1 238.12 390.00
  L 225.64 389.98
  A 0.36 0.36 0.0 0 1 225.32 389.78
  L 222.26 383.68
  A 0.36 0.36 0.0 0 0 221.94 383.48
  L 196.99 383.49
  A 0.36 0.36 0.0 0 0 196.67 383.69
  L 193.61 389.79
  A 0.36 0.36 0.0 0 1 193.29 389.99
  L 169.15 390.00
  A 0.36 0.36 0.0 0 1 168.83 389.80
  L 165.74 383.68
  A 0.36 0.36 0.0 0 0 165.42 383.48
  L 140.49 383.48
  A 0.36 0.36 0.0 0 0 140.17 383.68
  L 137.05 389.80
  A 0.36 0.36 0.0 0 1 136.73 390.00
  L 124.24 389.99
  A 0.36 0.36 0.0 0 1 123.92 389.46
  L 143.87 351.74
  A 0.36 0.36 0.0 0 1 144.19 351.55
  L 161.88 351.54
  A 0.36 0.36 0.0 0 1 162.20 351.73
  L 180.85 387.42
  A 0.36 0.36 0.0 0 0 181.49 387.43
  Z
  M 154.23 360.73
  A 0.31 0.31 0.0 0 0 153.95 360.56
  L 151.96 360.61
  A 0.31 0.31 0.0 0 0 151.69 360.78
  L 144.65 374.55
  A 0.31 0.31 0.0 0 0 144.93 375.00
  L 161.02 375.00
  A 0.31 0.31 0.0 0 0 161.30 374.55
  L 154.23 360.73
  Z
  M 217.72 374.25
  L 211.08 361.41
  A 1.81 1.80 -45.1 0 0 207.87 361.42
  L 201.11 374.65
  A 0.24 0.24 0.0 0 0 201.32 375.00
  L 217.26 375.00
  Q 218.10 375.00 217.72 374.25
  Z"
/>
<path fill="#a28900" d="
  M 304.38 361.42
  L 288.07 361.44
  A 0.37 0.37 0.0 0 1 287.70 361.07
  L 287.72 351.93
  A 0.37 0.37 0.0 0 1 288.09 351.56
  L 333.65 351.56
  A 0.37 0.37 0.0 0 1 334.02 351.93
  L 334.02 361.04
  A 0.37 0.37 0.0 0 1 333.65 361.41
  L 317.37 361.42
  A 0.37 0.37 0.0 0 0 317.00 361.79
  L 317.00 389.63
  A 0.37 0.37 0.0 0 1 316.63 390.00
  L 305.12 389.99
  A 0.37 0.37 0.0 0 1 304.75 389.62
  L 304.75 361.79
  A 0.37 0.37 0.0 0 0 304.38 361.42
  Z"
/>
<path fill="#a28900" d="
  M 348.34 375.40
  C 348.39 378.01 349.84 379.80 352.55 380.09
  Q 359.37 380.80 367.65 380.41
  C 370.95 380.26 374.22 379.61 374.39 375.62
  Q 374.83 365.07 374.67 352.18
  Q 374.66 351.57 375.28 351.57
  L 385.52 351.57
  A 0.70 0.69 -0.4 0 1 386.22 352.25
  Q 386.44 365.48 385.95 378.97
  C 385.63 387.86 379.61 390.06 371.81 390.35
  Q 358.78 390.83 348.61 390.10
  C 339.00 389.41 336.65 384.56 336.56 375.52
  Q 336.44 362.44 336.53 352.00
  A 0.43 0.42 0.0 0 1 336.96 351.58
  L 347.75 351.59
  A 0.52 0.52 0.0 0 1 348.27 352.12
  Q 348.15 363.52 348.34 375.40
  Z"
/>
</svg>
