<svg version="1.2" xmlns="http://www.w3.org/2000/svg" viewBox="0 0 1920 1080" width="1920" height="1080">
	<title>6850068-ai</title>
	<defs>
		<clipPath clipPathUnits="userSpaceOnUse" id="cp1">
			<path d="m1920 1080h-1920v-1080h1920z"/>
		</clipPath>
		<radialGradient id="g1" cx="0" cy="0" r="1" gradientUnits="userSpaceOnUse" gradientTransform="matrix(815.844,0,0,815.844,960,551.617)">
			<stop offset="0" stop-color="#e2a940"/>
			<stop offset=".835" stop-color="#de9e27"/>
		</radialGradient>
		<radialGradient id="g2" cx="0" cy="0" r="1" gradientUnits="userSpaceOnUse" gradientTransform="matrix(663.353,0,0,663.353,898.733,-152.886)">
			<stop offset="0" stop-color="#e2a940"/>
			<stop offset=".835" stop-color="#de9e27"/>
		</radialGradient>
		<radialGradient id="g3" cx="0" cy="0" r="1" gradientUnits="userSpaceOnUse" gradientTransform="matrix(617.787,0,0,617.787,1256.83,280.143)">
			<stop offset="0" stop-color="#e2a940"/>
			<stop offset=".835" stop-color="#de9e27"/>
		</radialGradient>
		<radialGradient id="g4" cx="0" cy="0" r="1" gradientUnits="userSpaceOnUse" gradientTransform="matrix(490.938,0,0,490.938,623.766,1049.068)">
			<stop offset="0" stop-color="#e2a940"/>
			<stop offset=".835" stop-color="#de9e27"/>
		</radialGradient>
		<radialGradient id="g5" cx="0" cy="0" r="1" gradientUnits="userSpaceOnUse" gradientTransform="matrix(671.461,0,0,671.461,1079.229,1023.892)">
			<stop offset="0" stop-color="#e2a940"/>
			<stop offset=".835" stop-color="#de9e27"/>
		</radialGradient>
		<linearGradient id="g6" x2="1" gradientUnits="userSpaceOnUse" gradientTransform="matrix(89.21,275.473,-181.191,58.677,1828.836,232.438)">
			<stop offset="0" stop-color="#ff8261"/>
			<stop offset=".582" stop-color="#df5e5a"/>
			<stop offset="1" stop-color="#cb445a"/>
		</linearGradient>
		<linearGradient id="g7" x2="1" gradientUnits="userSpaceOnUse" gradientTransform="matrix(112.092,356.948,-234.78,73.728,905.613,437.534)">
			<stop offset="0" stop-color="#ff8261"/>
			<stop offset=".582" stop-color="#df5e5a"/>
			<stop offset="1" stop-color="#cb445a"/>
		</linearGradient>
		<linearGradient id="g8" x2="1" gradientUnits="userSpaceOnUse" gradientTransform="matrix(0,84.176,-411.525,0,1286.671,869.405)">
			<stop offset="0" stop-color="#b44112"/>
			<stop offset=".539" stop-color="#853200"/>
			<stop offset="1" stop-color="#591f03"/>
		</linearGradient>
		<linearGradient id="g9" x2="1" gradientUnits="userSpaceOnUse" gradientTransform="matrix(523.285,0,0,97.458,1099.354,864.544)">
			<stop offset="0" stop-color="#b44112"/>
			<stop offset=".539" stop-color="#853200"/>
			<stop offset="1" stop-color="#591f03"/>
		</linearGradient>
		<linearGradient id="g10" x2="1" gradientUnits="userSpaceOnUse" gradientTransform="matrix(0,-60.338,397.023,0,1355.197,948.782)">
			<stop offset="0" stop-color="#f3ede7"/>
			<stop offset=".56" stop-color="#d6c9c1"/>
			<stop offset="1" stop-color="#bba597"/>
		</linearGradient>
		<linearGradient id="g11" x2="1" gradientUnits="userSpaceOnUse" gradientTransform="matrix(0,86.95,-425.088,0,1304.604,677.663)">
			<stop offset="0" stop-color="#e9bd40"/>
			<stop offset=".57" stop-color="#ff7a1d"/>
			<stop offset="1" stop-color="#bd5000"/>
		</linearGradient>
		<linearGradient id="g12" x2="1" gradientUnits="userSpaceOnUse" gradientTransform="matrix(523.285,0,0,97.458,1117.287,669.205)">
			<stop offset="0" stop-color="#e9bd40"/>
			<stop offset=".57" stop-color="#ff7a1d"/>
			<stop offset="1" stop-color="#bd5000"/>
		</linearGradient>
		<linearGradient id="g13" x2="1" gradientUnits="userSpaceOnUse" gradientTransform="matrix(0,-72.539,477.301,0,1373.13,758.071)">
			<stop offset="0" stop-color="#f3ede7"/>
			<stop offset=".56" stop-color="#d6c9c1"/>
			<stop offset="1" stop-color="#bba597"/>
		</linearGradient>
		<linearGradient id="g14" x2="1" gradientUnits="userSpaceOnUse" gradientTransform="matrix(0,102.064,-370.458,0,1283,775.39)">
			<stop offset="0" stop-color="#662e1f"/>
			<stop offset=".609" stop-color="#3a1909"/>
			<stop offset="1" stop-color="#1f0900"/>
		</linearGradient>
		<linearGradient id="g15" x2="1" gradientUnits="userSpaceOnUse" gradientTransform="matrix(-143.889,0,0,-30.724,1312.624,864.544)">
			<stop offset="0" stop-color="#662e1f"/>
			<stop offset=".609" stop-color="#3a1909"/>
			<stop offset="1" stop-color="#1f0900"/>
		</linearGradient>
		<linearGradient id="g16" x2="1" gradientUnits="userSpaceOnUse" gradientTransform="matrix(0,-76.314,435.275,0,1375.105,855.797)">
			<stop offset="0" stop-color="#f3ede7"/>
			<stop offset=".56" stop-color="#d6c9c1"/>
			<stop offset="1" stop-color="#bba597"/>
		</linearGradient>
		<linearGradient id="g17" x2="1" gradientUnits="userSpaceOnUse" gradientTransform="matrix(-6.77,168.635,-122.116,-4.903,1511.952,670.036)">
			<stop offset="0" stop-color="#a9cf74"/>
			<stop offset="1" stop-color="#7e9a2d"/>
		</linearGradient>
		<linearGradient id="g18" x2="1" gradientUnits="userSpaceOnUse" gradientTransform="matrix(24.271,167.019,-120.941,17.575,1110.313,687.995)">
			<stop offset="0" stop-color="#a9cf74"/>
			<stop offset="1" stop-color="#7e9a2d"/>
		</linearGradient>
		<linearGradient id="g19" x2="1" gradientUnits="userSpaceOnUse" gradientTransform="matrix(55.666,175.054,-92.908,29.544,1381.4,586.305)">
			<stop offset="0" stop-color="#a9cf74"/>
			<stop offset="1" stop-color="#7e9a2d"/>
		</linearGradient>
		<linearGradient id="g20" x2="1" gradientUnits="userSpaceOnUse" gradientTransform="matrix(95.285,0,0,69.821,1248.624,843.344)">
			<stop offset="0" stop-color="#3a1909"/>
			<stop offset=".53" stop-color="#662e1f"/>
			<stop offset="1" stop-color="#3a1909"/>
		</linearGradient>
		<linearGradient id="g21" x2="1" gradientUnits="userSpaceOnUse" gradientTransform="matrix(18.896,511.827,-407.24,15.035,1932.022,455.815)">
			<stop offset="0" stop-color="#662e1f"/>
			<stop offset=".609" stop-color="#3a1909"/>
			<stop offset="1" stop-color="#1f0900"/>
		</linearGradient>
		<linearGradient id="g22" x2="1" gradientUnits="userSpaceOnUse" gradientTransform="matrix(495.587,-547.422,540.626,489.435,1098.328,650.685)">
			<stop offset="0" stop-color="#662e1f"/>
			<stop offset=".609" stop-color="#3a1909"/>
			<stop offset="1" stop-color="#1f0900"/>
		</linearGradient>
		<linearGradient id="g23" x2="1" gradientUnits="userSpaceOnUse" gradientTransform="matrix(0,433.405,-339.081,0,1900.556,495.969)">
			<stop offset="0" stop-color="#f3ede7"/>
			<stop offset=".56" stop-color="#d6c9c1"/>
			<stop offset="1" stop-color="#bba597"/>
		</linearGradient>
		<linearGradient id="g24" x2="1" gradientUnits="userSpaceOnUse" gradientTransform="matrix(560.962,803.92,-758.806,529.482,1733.467,183.318)">
			<stop offset="0" stop-color="#662e1f"/>
			<stop offset=".609" stop-color="#3a1909"/>
			<stop offset="1" stop-color="#1f0900"/>
		</linearGradient>
		<linearGradient id="g25" x2="1" gradientUnits="userSpaceOnUse" gradientTransform="matrix(38.803,0,0,511.818,1386.623,457.106)">
			<stop offset="0" stop-color="#662e1f"/>
			<stop offset=".609" stop-color="#3a1909"/>
			<stop offset="1" stop-color="#1f0900"/>
		</linearGradient>
		<linearGradient id="g26" x2="1" gradientUnits="userSpaceOnUse" gradientTransform="matrix(0,38.351,-372.426,0,1493.746,942.958)">
			<stop offset="0" stop-color="#eee2d2"/>
			<stop offset="1" stop-color="#a86c46"/>
		</linearGradient>
		<linearGradient id="g27" x2="1" gradientUnits="userSpaceOnUse" gradientTransform="matrix(0,35.059,-28.724,0,1701.581,946.257)">
			<stop offset=".026" stop-color="#c04112"/>
			<stop offset="1" stop-color="#853200"/>
		</linearGradient>
		<linearGradient id="g28" x2="1" gradientUnits="userSpaceOnUse" gradientTransform="matrix(0,-40.087,302.869,0,1637.501,987.492)">
			<stop offset=".04" stop-color="#3a1909"/>
			<stop offset="1" stop-color="#4c2e1f"/>
		</linearGradient>
		<linearGradient id="g29" x2="1" gradientUnits="userSpaceOnUse" gradientTransform="matrix(0,-40.087,173.292,0,1636.704,987.492)">
			<stop offset=".04" stop-color="#3a1909"/>
			<stop offset="1" stop-color="#4c2e1f"/>
		</linearGradient>
		<linearGradient id="g30" x2="1" gradientUnits="userSpaceOnUse" gradientTransform="matrix(0,-40.088,279.962,0,1637.437,987.492)">
			<stop offset=".04" stop-color="#3a1909"/>
			<stop offset="1" stop-color="#4c2e1f"/>
		</linearGradient>
		<linearGradient id="g31" x2="1" gradientUnits="userSpaceOnUse" gradientTransform="matrix(0,-38.473,166.118,0,1636.73,983.781)">
			<stop offset=".026" stop-color="#904112"/>
			<stop offset="1" stop-color="#a3613a"/>
		</linearGradient>
		<linearGradient id="g32" x2="1" gradientUnits="userSpaceOnUse" gradientTransform="matrix(0,-38.473,166.515,0,1636.732,983.781)">
			<stop offset=".026" stop-color="#904112"/>
			<stop offset="1" stop-color="#a3613a"/>
		</linearGradient>
		<linearGradient id="g33" x2="1" gradientUnits="userSpaceOnUse" gradientTransform="matrix(140.484,140.484,-140.484,140.484,1486.316,812.596)">
			<stop offset="0" stop-color="#e9bd40"/>
			<stop offset=".57" stop-color="#ff7a1d"/>
			<stop offset="1" stop-color="#bd5000"/>
		</linearGradient>
		<linearGradient id="g34" x2="1" gradientUnits="userSpaceOnUse" gradientTransform="matrix(230.134,134.864,-85.782,146.381,1303.283,855.698)">
			<stop offset="0" stop-color="#e9bd40"/>
			<stop offset=".57" stop-color="#ff7a1d"/>
			<stop offset="1" stop-color="#bd5000"/>
		</linearGradient>
		<linearGradient id="g35" x2="1" gradientUnits="userSpaceOnUse" gradientTransform="matrix(11.142,11.142,-11.142,11.142,1299.96,952.311)">
			<stop offset=".026" stop-color="#904112"/>
			<stop offset="1" stop-color="#853200"/>
		</linearGradient>
		<linearGradient id="g36" x2="1" gradientUnits="userSpaceOnUse" gradientTransform="matrix(273.931,266.528,-2967.46,3049.887,1049.191,183.547)">
			<stop offset="0" stop-color="#b44112"/>
			<stop offset=".539" stop-color="#853200"/>
			<stop offset="1" stop-color="#591f03"/>
		</linearGradient>
		<linearGradient id="g37" x2="1" gradientUnits="userSpaceOnUse" gradientTransform="matrix(56.715,57.693,-80.291,78.93,971.486,524.572)">
			<stop offset="0" stop-color="#c17219"/>
			<stop offset=".539" stop-color="#853200"/>
			<stop offset="1" stop-color="#591f03"/>
		</linearGradient>
		<linearGradient id="g38" x2="1" gradientUnits="userSpaceOnUse" gradientTransform="matrix(57.172,-9.424,15.707,95.291,920.989,582.539)">
			<stop offset="0" stop-color="#c17219"/>
			<stop offset=".539" stop-color="#853200"/>
			<stop offset="1" stop-color="#591f03"/>
		</linearGradient>
		<linearGradient id="g39" x2="1" gradientUnits="userSpaceOnUse" gradientTransform="matrix(53.843,0,0,194.928,939.439,644.374)">
			<stop offset="0" stop-color="#b44112"/>
			<stop offset=".539" stop-color="#853200"/>
			<stop offset="1" stop-color="#591f03"/>
		</linearGradient>
		<linearGradient id="g40" x2="1" gradientUnits="userSpaceOnUse" gradientTransform="matrix(65.381,0,0,117.454,958.721,834.802)">
			<stop offset="0" stop-color="#c17219"/>
			<stop offset=".539" stop-color="#853200"/>
			<stop offset="1" stop-color="#591f03"/>
		</linearGradient>
		<linearGradient id="g41" x2="1" gradientUnits="userSpaceOnUse" gradientTransform="matrix(22.797,36.475,-20.933,13.083,1302.698,226.69)">
			<stop offset="0" stop-color="#b44112"/>
			<stop offset=".539" stop-color="#853200"/>
			<stop offset="1" stop-color="#591f03"/>
		</linearGradient>
		<linearGradient id="g42" x2="1" gradientUnits="userSpaceOnUse" gradientTransform="matrix(26.776,58.471,-58.471,26.777,963.601,545.3)">
			<stop offset="0" stop-color="#b44112"/>
			<stop offset=".539" stop-color="#853200"/>
			<stop offset="1" stop-color="#591f03"/>
		</linearGradient>
		<linearGradient id="g43" x2="1" gradientUnits="userSpaceOnUse" gradientTransform="matrix(312.138,0,0,72.232,888.648,890.39)">
			<stop offset="0" stop-color="#3a1909"/>
			<stop offset=".53" stop-color="#662e1f"/>
			<stop offset="1" stop-color="#3a1909"/>
		</linearGradient>
		<linearGradient id="g44" x2="1" gradientUnits="userSpaceOnUse" gradientTransform="matrix(-49.314,55.256,-33.254,-29.678,1364.254,301.542)">
			<stop offset="0" stop-color="#b44112"/>
			<stop offset=".539" stop-color="#853200"/>
			<stop offset="1" stop-color="#591f03"/>
		</linearGradient>
		<linearGradient id="g45" x2="1" gradientUnits="userSpaceOnUse" gradientTransform="matrix(-146.405,123.204,-80.352,-95.483,1519.559,481.284)">
			<stop offset="0" stop-color="#c17219"/>
			<stop offset=".539" stop-color="#853200"/>
			<stop offset="1" stop-color="#591f03"/>
		</linearGradient>
	</defs>
	<style>
		tspan { white-space:pre } 
		.s0 { fill: url(#g1) } 
		.s1 { opacity: .3;mix-blend-mode: multiply;fill: url(#g2) } 
		.s2 { opacity: .5;mix-blend-mode: screen;fill: none;stroke: url(#g3);stroke-miterlimit:10;stroke-width: 2.6 } 
		.s3 { opacity: .3;mix-blend-mode: multiply;fill: url(#g4) } 
		.s4 { opacity: .5;mix-blend-mode: screen;fill: none;stroke: url(#g5);stroke-miterlimit:10;stroke-width: 2.4 } 
		.s5 { fill: #e5dbd3 } 
		.s6 { fill: url(#g6) } 
		.s7 { fill: #853200 } 
		.s8 { fill: url(#g7) } 
		.s9 { fill: url(#g8) } 
		.s10 { fill: url(#g9) } 
		.s11 { fill: url(#g10) } 
		.s12 { fill: url(#g11) } 
		.s13 { fill: url(#g12) } 
		.s14 { fill: url(#g13) } 
		.s15 { fill: url(#g14) } 
		.s16 { fill: url(#g15) } 
		.s17 { fill: url(#g16) } 
		.s18 { fill: url(#g17) } 
		.s19 { fill: url(#g18) } 
		.s20 { fill: url(#g19) } 
		.s21 { fill: url(#g20) } 
		.s22 { mix-blend-mode: multiply;fill: #d6c9c1 } 
		.s23 { fill: url(#g21) } 
		.s24 { fill: url(#g22) } 
		.s25 { fill: url(#g23) } 
		.s26 { fill: url(#g24) } 
		.s27 { fill: url(#g25) } 
		.s28 { mix-blend-mode: screen;fill: #28150e } 
		.s29 { fill: url(#g26) } 
		.s30 { fill: url(#g27) } 
		.s31 { fill: url(#g28) } 
		.s32 { fill: url(#g29) } 
		.s33 { fill: url(#g30) } 
		.s34 { fill: url(#g31) } 
		.s35 { fill: url(#g32) } 
		.s36 { fill: url(#g33) } 
		.s37 { fill: url(#g34) } 
		.s38 { fill: url(#g35) } 
		.s39 { fill: #3a1507 } 
		.s40 { fill: url(#g36) } 
		.s41 { fill: url(#g37) } 
		.s42 { fill: url(#g38) } 
		.s43 { fill: url(#g39) } 
		.s44 { fill: url(#g40) } 
		.s45 { fill: url(#g41) } 
		.s46 { fill: url(#g42) } 
		.s47 { fill: #e2c675 } 
		.s48 { fill: url(#g43) } 
		.s49 { fill: url(#g44) } 
		.s50 { fill: #f3ede7 } 
		.s51 { fill: url(#g45) } 
		.s52 { mix-blend-mode: multiply;fill: #e6e7e8 } 
		.t53 { font-size: 30px;line-height: 44px;fill: #e9e5d9;font-weight: 400;font-family: "Poppins-Regular", "Poppins" } 
		.t54 { font-size: 161px;fill: #4c2c1a;font-weight: 400;font-family: "ContrailOne-Regular", "Contrail One" } 
		.t55 { font-size: 83px;fill: #f4e1be;font-weight: 400;font-family: "Sarina-Regular", "Sarina" } 
	</style>
	<g id="BACKGROUND">
		<g id="&lt;Group&gt;">
			<g id="&lt;Group&gt;">
				<g id="&lt;Clip Group&gt;" clip-path="url(#cp1)">
					<path id="&lt;Path&gt;" class="s0" d="m1920 1103.2h-1920v-1103.2h1920z"/>
					<path id="&lt;Path&gt;" class="s1" d="m115.1-263.8c41.4 83.9 118.3 145.9 208.4 169.9 102.7 27.4 221.1 26.3 316.1 81.1 138.9 80 120.3 284.8 297.6 323.6 97.2 21.3 192.4-26.4 261.8-91.6 49-46.1 85.2-103.9 149.9-129.9 63.7-25.6 131-1.1 196.4-11.3 59.7-9.3 105.1-51.8 128.6-106.2 19.7-45.6 25.6-95.9 30.3-145.3 13.1-137.1 16.1-286.6-63.4-399.1-10.8-15.2-23.4-29.9-39.9-38.5-20.7-10.7-45-10.8-68.3-10.6-312.8 2.9-625.4 21.4-937.4 45.6-18.6 1.5-37.3 3.1-56 4.9-109.6 14.7-217.2 17.2-329.8 32.6-52.9 7.2-95.4 47.7-112.8 97-20.3 57.3-9.4 121.2 18.5 177.8z"/>
					<path id="&lt;Path&gt;" class="s2" d="m431.4-6.1c0 0 173.4 381.7 505.9 286.2 332.5-95.4 274.7 349.9 656.4 173.5 381.6-176.3 488.6 112.8 488.6 112.8"/>
					<path id="&lt;Path&gt;" class="s3" d="m204.9 899.6c34.3 11.7 65.4 31.1 97.5 47.9 43.6 22.8 90.9 41.4 140.2 42 101.5 1.4 197.1-72.6 296.9-53.9 36.1 6.7 68.8 25.2 100.7 43.4q123.5 70.6 247 141.1c66.4 37.9 135.6 76.8 211.8 82.9-390.8 21.1-782.6-9.4-1174-4.5-45.3 0.6-94.5 0.4-130.4-27.1-33.7-25.8-47.9-71-45.9-113.4 2.2-48.5 15.4-108.5 58.5-135.9 57-36.4 134.1-44.1 197.7-22.5z"/>
					<path id="&lt;Path&gt;" class="s4" d="m133.8 1089.5q14.4-1.3 31.5-2.4c67.8-4.7 137-9.6 201.3-27.6 69.9-19.6 120.4-60.6 187.5-83.6 81.9-28.1 179.4-21.7 255.6 13.2 51.7 23.8 88.6 54.8 153.9 56.9 50.5 1.5 98.3-12.6 146.9-20.4 50.6-8.1 104.8-6.5 155.3 1.3 98.8 15.3 184.2 55.8 287.3 58.8 95.4 2.8 168.2-31.5 257-47.8 62.7-11.6 115.2 8.9 169.8 28.8 14.2 5.2 29.3 9.7 44.8 13.3"/>
				</g>
			</g>
		</g>
	</g>
	<g id="OBJECTS">
		<g id="&lt;Group&gt;" style="mix-blend-mode: multiply">
			<path id="&lt;Path&gt;" class="s5" d="m1834.8 978.5h-955.5c-9.8 0-17.9-8-17.9-17.9 0-9.8 8.1-17.9 17.9-17.9h955.5c9.9 0 17.9 8.1 17.9 17.9 0 9.9-8 17.9-17.9 17.9z"/>
			<path id="&lt;Path&gt;" class="s5" d="m1784.2 997.4h-739.1c-11.6 0-21-9.4-21-21 0-11.6 9.4-21 21-21h739.1c11.6 0 21 9.4 21 21 0 11.6-9.4 21-21 21z"/>
		</g>
		<g id="&lt;Group&gt;">
			<g id="&lt;Group&gt;">
				<path id="&lt;Path&gt;" class="s6" d="m1711.3 456.6c-21.3-25.8-42.6 28.7-47.7 42.4 4.2-27.3 17.1-53.2 24.9-78.4 5.5-17.9-10.8-35.1-26.9-41.6-19.7-7.8-30.4 15.4-33.9 30.4-2.2-19.4 14.1-48 1.9-64.1-11.2-14.8-37.8-19.9-54.5-9.6-16.9 10.3-32.9 33.8-26.3 53 5.2 15.3 32.6 14.4 42.2 30.9-18.1-10.9-43.5-9.8-52.2 12.6-10.9 28 38.2 45 45.8 70.1-11.7-14.6-43.5-44.1-61.4-23.4-22.2 25.5 29.4 57.9 46.4 68.2 27.9 17 35.9 95.8 35.9 95.8 0 0 39.3-55.9 61.2-79.6 21.7-23.5 73.7-71.5 44.6-106.7z"/>
				<path id="&lt;Path&gt;" class="s7" d="m1662.1 524.4c-6.9 8.4-14 16.9-20.9 25.3-5.6 6.8-11.3 13.7-16.9 20.7 3.1-25.8 3.2-52.2 0.8-78.1 5.3-15.3 11.1-30.1 17.5-44.9 3.2-7.5 6.6-15 9.9-22.4 3.3-7.4 10.1-22.1 10.1-22.1 0 0-7.1 14.3-10.5 21.6-3.5 7.2-6.9 14.6-10.4 21.9-6.2 13.4-11.8 27-17.1 40.8-2.6-26.4-8.8-52.1-16.5-77.4-0.1-4.5 0.2-8.9 0.6-13.2 0.5-4.4 1.1-8.7 1.7-13 1.3-8.5 2.8-17 4.4-25.4-1.8 8.2-3.6 16.5-5.1 25-0.7 4.2-1.5 8.5-2 12.9-0.4 3.2-0.7 6.4-0.9 9.7-6.7-18.7-14.4-36.6-23.2-54.5 8.5 18.1 15.7 36.1 22.1 55-2.4-3-4.9-5.8-7.5-8.4-3.5-3.4-7.1-6.6-10.8-9.3-7.4-5.4-23-12.8-23-12.8 0 0 15.5 7.9 22.8 13.6 3.6 2.8 7.1 6 10.5 9.5 3.3 3.4 6.3 7.2 9.2 11.3 7.2 25.6 12.8 51.4 14.8 78-3.8-5.9-8-11.4-12.5-16.3-5.6-6-11.5-11.4-17.7-16.1-6.2-4.7-12.6-8.8-19.1-12.3-6.5-3.5-19.9-8.7-19.9-8.7 0 0 13.3 5.6 19.7 9.3 6.5 3.7 12.8 8 18.8 12.8 6.1 4.8 11.9 10.4 17.3 16.5 5.1 5.8 9.7 12.3 13.8 19.4 1.8 25.7 1.1 51.9-2.6 77.5-4.3-8.7-9.3-16.7-14.7-24-6.6-8.7-13.9-16.7-21.5-23.7-7.7-7-15.7-13.3-24-18.8-8.3-5.5-25.6-14.3-25.6-14.3 0 0 17.1 9.3 25.3 15 8.1 5.7 16 12.2 23.5 19.5 7.4 7.2 14.5 15.3 20.8 24.2 5.9 8.3 11.1 17.4 15.5 27.3-8.2 47.8-23.6 91.2-47.1 133.6 2.7 1.6 4.1 2.4 6.8 3.9 23.1-43.6 37.8-88.2 45.2-137 6.1-8.1 12.4-16.2 18.7-24.1 6.8-8.6 13.8-17.2 20.5-25.9 13.6-17.5 39.6-53.1 39.6-53.1 0 0-26.6 34.5-40.4 51.5z"/>
			</g>
		</g>
		<g id="&lt;Group&gt;">
			<g id="&lt;Group&gt;">
				<path id="&lt;Path&gt;" class="s8" d="m1197.1 585.8c3.2-43.2 66.4-1.6 82 8.9-24.9-25.6-57.9-43.2-84.9-64-19.2-14.7-14.9-45-2.8-63.8 14.9-23 43.5-6.6 58.4 6.6-12.1-22.1-50.7-40-49.9-66.1 0.8-24 24.9-49.3 50.3-50.9 25.5-1.7 59.9 11 67.3 36.2 5.9 20-23.5 39.5-21.3 64.1 10.9-25 38.5-42.9 64.5-25.8 32.3 21.3-6.7 76 4.1 108.2 1.3-24.2 12.8-79 47.2-70.7 42.4 10.3 12.2 83 2.1 106.6-16.6 38.8 33.8 127.8 33.8 127.8 0 0-83.1-29.5-123.9-38.1-40.6-8.5-131.2-20.2-126.9-79z"/>
				<path id="&lt;Path&gt;" class="s7" d="m1299.6 620.4c13.6 3.7 27.4 7.3 41 11 11 2.9 22.2 6 33.3 9.2-22.6-24.9-42.5-52.6-59.3-81.7-17-12.2-34.2-23.4-52-34.3-9-5.4-18.2-10.8-27.2-16.1-9-5.3-27.1-15.7-27.1-15.7 0 0 18.1 9.8 27.2 14.8 9.1 5.1 18.2 10.2 27.3 15.4 16.6 9.4 32.7 19.5 48.5 30.2-17-29.8-29.7-61.5-40.5-93.9-3.2-4.9-6.8-9.2-10.5-13.5-3.7-4.3-7.6-8.4-11.5-12.4-7.8-8-15.7-15.8-23.6-23.5 8 7.3 16.1 14.8 24 22.5 4 3.9 7.9 7.9 11.8 12.1 2.8 3.1 5.6 6.2 8.2 9.6-6.9-24.8-12.2-49.4-16.2-74.8 4.5 25.4 10.4 49.8 17.8 74.5 0.2-5 0.7-9.8 1.6-14.5 1.1-6.2 2.5-12.2 4.4-17.8 3.7-11.3 14.7-30.7 14.7-30.7 0 0-10.5 19.9-13.9 31.3-1.7 5.7-3 11.7-3.9 17.9-1 6-1.3 12.4-1.3 18.7 11.6 32.4 25 63.8 42.7 93.3-0.4-9.1-0.1-18 1-26.5 1.4-10.5 3.6-20.7 6.6-30.2 3.1-9.6 6.7-18.7 11-27.2 4.2-8.6 14.4-24.2 14.4-24.2 0 0-9.8 15.9-13.8 24.6-4.1 8.8-7.5 18-10.3 27.6-2.7 9.7-4.7 19.9-5.8 30.4-1 9.8-1 20.1 0 30.6 17.4 28.5 37.7 55.6 60.6 79.8-1.8-12.4-2.6-24.6-2.3-36.3 0.4-14.1 2.1-28 4.9-41.1 2.8-13.1 6.6-25.7 11.2-37.7 4.6-12 16.3-34.2 16.3-34.2 0 0-11.2 22.6-15.5 34.7-4.3 12.1-7.8 24.9-10.2 38.1-2.4 13.2-3.8 27-3.8 41.1 0 13.1 1.4 26.6 4.1 40.4 44.5 44.1 93.1 78.4 149.6 105.4-1.7 3.7-2.6 5.6-4.3 9.3-56.9-28.7-105.8-64.7-150-110.6-12.6-3.9-25.2-7.7-37.7-11.4-13.7-3.9-27.5-7.8-41.1-11.9-27.3-8.3-81.5-26.3-81.5-26.3 0 0 54 16.4 81.1 24z"/>
			</g>
		</g>
		<g id="&lt;Group&gt;">
			<path id="&lt;Path&gt;" class="s9" d="m1514.9 962h-427.7c-26.9 0-48.7-21.8-48.7-48.7 0-26.9 21.8-48.8 48.7-48.8h427.7z"/>
			<path id="&lt;Path&gt;" class="s10" d="m1612.1 951.4v-76.3h10.5v-10.6h-474.5c-26.9 0-48.7 21.9-48.7 48.8 0 26.9 21.8 48.7 48.7 48.7h474.5v-10.6z"/>
			<path id="&lt;Path&gt;" class="s11" d="m1148.1 951.4c-21.1 0-38.2-17.1-38.2-38.1 0-21.1 17.1-38.2 38.2-38.2h464v76.3z"/>
			<g id="&lt;Group&gt;" style="mix-blend-mode: multiply">
				<g id="&lt;Group&gt;">
					<path id="&lt;Path&gt;" class="s5" d="m1612.1 897.2h-484.4v-4.9h484.4z"/>
				</g>
				<g id="&lt;Group&gt;">
					<path id="&lt;Path&gt;" class="s5" d="m1612.1 909.5h-490.9v-4.8h490.9z"/>
				</g>
				<g id="&lt;Group&gt;">
					<path id="&lt;Path&gt;" class="s5" d="m1612.1 921.9h-490.9v-4.9h490.9z"/>
				</g>
				<g id="&lt;Group&gt;">
					<path id="&lt;Path&gt;" class="s5" d="m1612.1 934.2h-484.4v-4.8h484.4z"/>
				</g>
			</g>
		</g>
		<g id="&lt;Group&gt;">
			<path id="&lt;Path&gt;" class="s12" d="m1532.9 766.7h-427.8c-26.9 0-48.7-21.9-48.7-48.8 0-26.9 21.8-48.7 48.7-48.7h427.8z"/>
			<path id="&lt;Path&gt;" class="s13" d="m1630 756.1v-76.3h10.6v-10.6h-474.6c-26.9 0-48.7 21.8-48.7 48.7 0 26.9 21.8 48.8 48.7 48.8h474.6v-10.6z"/>
			<path id="&lt;Path&gt;" class="s14" d="m1166 756.1c-21 0-38.1-17.1-38.1-38.2 0-21 17.1-38.1 38.1-38.1h464v76.3z"/>
			<g id="&lt;Group&gt;" style="mix-blend-mode: multiply">
				<g id="&lt;Group&gt;">
					<path id="&lt;Path&gt;" class="s5" d="m1630 701.8h-484.4v-4.8h484.4z"/>
				</g>
				<g id="&lt;Group&gt;">
					<path id="&lt;Path&gt;" class="s5" d="m1630 714.2h-490.9v-4.9h490.9z"/>
				</g>
				<g id="&lt;Group&gt;">
					<path id="&lt;Path&gt;" class="s5" d="m1630 726.5h-490.9v-4.8h490.9z"/>
				</g>
				<g id="&lt;Group&gt;">
					<path id="&lt;Path&gt;" class="s5" d="m1630 738.9h-484.4v-4.9h484.4z"/>
				</g>
			</g>
		</g>
		<g id="&lt;Group&gt;">
			<path id="&lt;Path&gt;" class="s15" d="m1446.4 864.5h-305c-26.9 0-48.7-21.8-48.7-48.7 0-26.9 21.8-48.7 48.7-48.7h305z"/>
			<path id="&lt;Path&gt;" class="s16" d="m1599.4 854v-76.3h10.6v-10.6h-407.7c-26.9 0-48.7 21.8-48.7 48.7 0 26.9 21.8 48.7 48.7 48.7h407.7v-10.5z"/>
			<path id="&lt;Path&gt;" class="s17" d="m1202.3 854c-21 0-38.1-17.1-38.1-38.2 0-21 17.1-38.1 38.1-38.1h397.1v76.3z"/>
			<g id="&lt;Group&gt;" style="mix-blend-mode: multiply">
				<g id="&lt;Group&gt;">
					<path id="&lt;Path&gt;" class="s5" d="m1599.4 799.7h-417.5v-4.8h417.5z"/>
				</g>
				<g id="&lt;Group&gt;">
					<path id="&lt;Path&gt;" class="s5" d="m1599.4 812.1h-424v-4.9h424z"/>
				</g>
				<g id="&lt;Group&gt;">
					<path id="&lt;Path&gt;" class="s5" d="m1599.4 824.4h-424v-4.8h424z"/>
				</g>
				<g id="&lt;Group&gt;">
					<path id="&lt;Path&gt;" class="s5" d="m1599.4 836.8h-417.5v-4.9h417.5z"/>
				</g>
			</g>
		</g>
		<g id="&lt;Group&gt;">
			<g id="&lt;Group&gt;">
				<path id="&lt;Path&gt;" class="s7" d="m1360.5 814.1c0 0-2.2 6.6-4.5 14.9-2.4 8.2-4.9 18.1-5.4 25.1l3.9 0.3c0.5-6.3 2.9-16.2 5.3-24.4 1.1-4.1 2.3-7.7 3.1-10.4 0.8-2.6 1.4-4.3 1.4-4.3l-3.8-1.2z"/>
				<path id="&lt;Path&gt;" class="s18" d="m1355.8 818.1c0 0-20.4-25.8 10.9-79.4 31.3-53.6 95.8-66.5 98.8-59.6 3 7-32.8 20.4-42.7 61.6-9.9 41.2-11.2 64-23.7 76.4-12.4 12.4-29.2 17.4-43.3 1z"/>
				<g id="&lt;Group&gt;" style="mix-blend-mode: multiply">
					<path id="&lt;Path&gt;" class="s5" d="m1364.1 810.1q-0.3 0-0.6 0c-1-0.3-1.6-1.4-1.3-2.5 0.9-3.3 22.7-80.6 63-110.2 0.9-0.6 2.1-0.4 2.8 0.5 0.6 0.8 0.4 2.1-0.5 2.7-39.2 28.8-61.3 107.3-61.5 108.1-0.3 0.9-1.1 1.4-1.9 1.4z"/>
				</g>
			</g>
			<g id="&lt;Group&gt;">
				<path id="&lt;Path&gt;" class="s7" d="m1275.9 815.5c0 0 2.9 6.3 6.1 14.3 3.2 8 6.7 17.6 7.9 24.5l-3.9 0.7c-1.1-6.3-4.5-15.8-7.7-23.7-1.6-3.9-3.1-7.5-4.2-10-1.1-2.6-1.8-4.2-1.8-4.2l3.6-1.6z"/>
				<path id="&lt;Path&gt;" class="s19" d="m1281 819c0 0 17.6-27.8-19.1-77.8-36.7-50.1-102.2-56.2-104.4-49-2.3 7.2 34.7 16.8 48.8 56.8 14.2 39.9 17.9 62.5 31.5 73.5 13.6 11.1 30.9 14.3 43.2-3.5z"/>
				<g id="&lt;Group&gt;" style="mix-blend-mode: multiply">
					<path id="&lt;Path&gt;" class="s5" d="m1272 812q0.2-0.1 0.5-0.2c1-0.4 1.5-1.5 1.1-2.5-1.2-3.2-31-77.9-74.1-103.1-1-0.5-2.2-0.2-2.7 0.7-0.6 1-0.3 2.2 0.7 2.7 41.9 24.5 72.1 100.3 72.4 101.1 0.3 0.9 1.2 1.3 2.1 1.3z"/>
				</g>
			</g>
			<g id="&lt;Group&gt;">
				<path id="&lt;Path&gt;" class="s7" d="m1318.9 808.2c0 0 0.1 0.8 0.1 2.1 0.1 4.2 0.2 13.7-0.5 24.1-0.4 4.8-0.9 9.8-1.8 14.5l4.4 0.8c0.9-4.9 1.4-10 1.8-15 1-14.1 0.5-26.6 0.5-26.7l-4.5 0.2z"/>
				<path id="&lt;Path&gt;" class="s20" d="m1342.9 795.3c0 0 42.3-39.2 1.8-110-40.5-70.7-140.5-82.8-144.4-73.7-4 9.1 37.2 29.9 49.9 84.1 12.6 54.2 19.6 81.4 35.8 97.9 16.2 16.4 38.3 23.1 56.9 1.7z"/>
				<g id="&lt;Group&gt;" style="mix-blend-mode: multiply">
					<path id="&lt;Path&gt;" class="s5" d="m1320.7 788c-1-0.1-1.9-0.8-2.2-1.8-0.1-0.4-0.1-0.6-0.1-2.4-0.6-30.6-8.6-132.4-89.2-157.7-1.2-0.4-1.8-1.6-1.5-2.8 0.4-1.2 1.7-1.8 2.8-1.5 83.4 26.3 91.8 130.6 92.3 161.9q0 1.3 0.1 1.6c0.3 1.2-0.4 2.3-1.6 2.6q-0.3 0.1-0.6 0.1z"/>
				</g>
			</g>
			<path id="&lt;Path&gt;" class="s21" d="m1372 963.5h-102.3c-2.6 0-4.9-1.8-5.4-4.3l-25.3-109.1c-0.8-3.4 1.9-6.8 5.4-6.8h152.9c3.5 0 6.2 3.4 5.4 6.8l-25.3 109.1c-0.5 2.5-2.8 4.3-5.4 4.3z"/>
			<path id="&lt;Path&gt;" class="s22" d="m1247.2 885.4h147.3l4.3-18.7h-155.9z"/>
		</g>
		<g id="&lt;Group&gt;">
			<path id="&lt;Path&gt;" class="s23" d="m1805.2 479.3v467.4c0 12.3-9.9 22.2-22.2 22.2h-356.1c-12.2 0-22.1-9.9-22.1-22.2v-467.4c0-12.3 9.9-22.2 22.1-22.2h356.1c12.3 0 22.2 9.9 22.2 22.2z"/>
			<path id="&lt;Path&gt;" class="s24" d="m1800.9 479.3v467.4c0 12.3-9.9 22.2-22.2 22.2h-356.1c-12.2 0-22.1-9.9-22.1-22.2v-467.4c0-12.3 9.9-22.2 22.1-22.2h356.1c12.3 0 22.2 9.9 22.2 22.2z"/>
			<path id="&lt;Path&gt;" class="s25" d="m1785.9 481.8v462.5h-361.9v-462.5z"/>
			<path id="&lt;Path&gt;" class="s26" d="m1759.1 479.3v467.4c0 12.3-9.9 22.2-22.2 22.2h-328.1c-12.2 0-22.2-9.9-22.2-22.2v-467.4c0-12.3 10-22.2 22.2-22.2h328.1c12.3 0 22.2 9.9 22.2 22.2z"/>
			<path id="&lt;Path&gt;" class="s27" d="m1425.4 457.1v511.8h-29.5c-5.1 0-9.3-4.1-9.3-9.3v-493.2c0-5.1 4.2-9.3 9.3-9.3z"/>
			<path id="&lt;Path&gt;" class="s28" d="m1683.1 626.5h-193.1c-6.1 0-11.1-5-11.1-11.1v-87.8c0-6.2 5-11.1 11.1-11.1h193.1c6.1 0 11.1 4.9 11.1 11.1v87.8c0 6.1-5 11.1-11.1 11.1z"/>
			<g id="&lt;Group&gt;" style="mix-blend-mode: multiply">
				<path id="&lt;Path&gt;" class="s5" d="m1780.6 481.8h-2.6v462.5h2.6z"/>
				<path id="&lt;Path&gt;" class="s5" d="m1773.3 481.8h-2.5v462.5h2.5z"/>
				<path id="&lt;Path&gt;" class="s5" d="m1766 481.8h-2.5v462.5h2.5z"/>
			</g>
		</g>
		<g id="&lt;Group&gt;">
			<path id="&lt;Path&gt;" class="s29" d="m1676.1 984.2h-319.9l-51.3-14.5-13-3.7c-2.6-0.7-2.6-4.4 0-5.1l13-3.7 51.3-14.5h260.2 42.9 16.8c9.5 0 17.1 7.7 17.1 17.2l0.1 7.2c-0.1 9.4-7.8 17.1-17.2 17.1z"/>
			<path id="&lt;Path&gt;" class="s30" d="m1676.1 942.8c9.5 0 17.1 7.6 17.1 17.1l0.1 7.2c-0.1 9.4-7.8 17.1-17.2 17.1h-16.8v-6.1-9.9-10-9.8-5.6z"/>
			<path id="&lt;Path&gt;" class="s31" d="m1616.4 942.7l42.9 0.1v5.6h-42.9z"/>
			<path id="&lt;Path&gt;" class="s32" d="m1659.3 958.2v10h-42.8l-0.1-4.7v-5.2z"/>
			<path id="&lt;Path&gt;" class="s33" d="m1659.3 978.1v6.1h-42.9l0.1-6.1z"/>
			<path id="&lt;Path&gt;" class="s34" d="m1659.3 978.1h-42.8v-9.9h42.8z"/>
			<path id="&lt;Path&gt;" class="s35" d="m1659.3 948.4v9.8l-42.9 0.1v-9.9z"/>
			<path id="&lt;Path&gt;" class="s36" d="m1616.4 942.7v5.7 9.9 5.2h-260.2v-20.8z"/>
			<path id="&lt;Path&gt;" class="s37" d="m1616.4 963.5l0.1 4.7v9.9l-0.1 6.1h-260.2v-20.7z"/>
			<path id="&lt;Path&gt;" class="s38" d="m1304.9 969.7l-13-3.7c-2.6-0.7-2.6-4.4 0-5.1l13-3.7z"/>
		</g>
		<g id="&lt;Group&gt;">
			<g id="&lt;Group&gt;">
				<path id="&lt;Path&gt;" class="s39" d="m1174.5 352.7l-3.1-4.9c11.6-7.4 20.1-14.9 25.4-22.4 6.1-8.5 7.5-18.2 9-28.4 1.2-8.6 2.6-17.6 6.9-25.8 4.7-9 13.3-20.1 27.1-21.9 16.3-2.2 30.3 2.9 44.1 16l-4 4.2c-12.4-11.8-24.9-16.4-39.3-14.5-11.4 1.6-18.7 11.1-22.7 18.9-3.9 7.4-5.1 15.4-6.4 24-1.5 10.4-3.1 21.2-9.9 30.9-5.8 8.1-14.9 16.1-27.1 23.9z"/>
			</g>
			<g id="&lt;Group&gt;">
				<path id="&lt;Path&gt;" class="s39" d="m1196.9 343.6l-10.3-10.2 81.9-81.9 10.3 10.3z"/>
			</g>
			<g id="&lt;Group&gt;">
				<path id="&lt;Path&gt;" class="s40" d="m984.3 562.4l-16.4-16.5 215.7-215.6 16.4 16.4z"/>
			</g>
			<g id="&lt;Group&gt;">
				<path id="&lt;Path&gt;" class="s41" d="m953.9 601l-24.6-24.7 34.5-34.5 24.6 24.7z"/>
			</g>
			<g id="&lt;Group&gt;">
				<path id="&lt;Path&gt;" class="s42" d="m933.7 649l-9.3-57.6 34.4-5.5 9.3 57.5z"/>
			</g>
			<g id="&lt;Group&gt;">
				<path id="&lt;Path&gt;" class="s43" d="m970.3 839.3l-30.9-191.2 23-3.7 30.9 191.2z"/>
			</g>
			<g id="&lt;Group&gt;">
				<path id="&lt;Path&gt;" class="s44" d="m975.3 952.3l-16.5-102.2c-0.7-4.8 2.5-9.3 7.3-10.1l31.4-5.1c4.8-0.8 9.3 2.5 10.1 7.3l16.5 102.2z"/>
			</g>
			<path id="&lt;Path&gt;" class="s45" d="m1316.4 290.1l-19.7 19.7-37.4-37.4c-5.4-5.5-5.4-14.3 0-19.7 5.5-5.4 14.3-5.4 19.7 0z"/>
			<path id="&lt;Path&gt;" class="s39" d="m1273 256.6c2.7 2.7 2.7 7.1 0 9.8-2.7 2.7-7.1 2.7-9.8 0-2.7-2.7-2.7-7.1 0-9.8 2.7-2.7 7.1-2.7 9.8 0z"/>
			<path id="&lt;Path&gt;" class="s46" d="m970.3 588.7c0 15.8-12.8 28.7-28.7 28.7-15.8 0-28.7-12.9-28.7-28.7 0-15.9 12.9-28.7 28.7-28.7 15.9 0 28.7 12.8 28.7 28.7z"/>
			<path id="&lt;Path&gt;" class="s39" d="m955.8 588.7c0 7.8-6.4 14.1-14.2 14.1-7.8 0-14.1-6.3-14.1-14.1 0-7.8 6.3-14.2 14.1-14.2 7.8 0 14.2 6.4 14.2 14.2z"/>
			<path id="&lt;Path&gt;" class="s47" d="m1137.9 935c0 5.8-4.7 10.5-10.5 10.5-5.8 0-10.5-4.7-10.5-10.5 0-5.8 4.7-10.4 10.5-10.4 5.8 0 10.5 4.6 10.5 10.4z"/>
			<path id="&lt;Path&gt;" class="s48" d="m1060.5 911.7l-7.1-13.5c-2.5-4.8-7.4-7.8-12.8-7.8h-81.7c-5.4 0-10.4 3-12.9 7.8l-7 13.5c-6.6 12.7-19.7 20.6-34 20.6-9 0-16.4 7.3-16.4 16.3v14h312.2v-14c0-9-7.3-16.3-16.3-16.3h-90c-14.3 0-27.4-7.9-34-20.6z"/>
			<g id="&lt;Group&gt;">
				<path id="&lt;Path&gt;" class="s49" d="m1290.5 331.2l-19.3-19.3c-4.1-4.2-4.1-10.9 0-15.1l32.3-32.2c4.1-4.1 10.8-4.1 15 0l19.3 19.3z"/>
			</g>
			<path id="&lt;Path&gt;" class="s50" d="m1433.9 363.7c17.5 17.5 17.5 46 0 63.5-17.6 17.6-46 17.6-63.6 0-17.5-17.5-17.5-46 0-63.5 17.6-17.6 46-17.6 63.6 0z"/>
			<path id="&lt;Path&gt;" class="s51" d="m1402.7 272.7q-0.3-0.1-0.6-0.3c-28.6-12.8-62.2-5.7-84.4 16.4l-22.3 22.3c-22.1 22.1-29.1 55.8-16.3 84.4q0.1 0.3 0.2 0.6l45.5 99.6 177.6-177.5z"/>
			<path id="&lt;Path&gt;" class="s52" d="m1306.6 300l-11.2 11.1c-22.1 22.1-29.1 55.8-16.3 84.4q0.1 0.3 0.2 0.6l45.5 99.6 88.8-88.7z"/>
			<path id="&lt;Path&gt;" class="s39" d="m1060.5 911.7l-7.1-13.5c-2.5-4.8-7.4-7.8-12.8-7.8h-81.7c-5.4 0-10.4 3-12.9 7.8l-7 13.5c-6.6 12.7-19.7 20.6-34 20.6h189.5c-14.3 0-27.4-7.9-34-20.6z"/>
		</g>
	</g>
	<g id="TEXTS">
		<text id="Welcome to AASTU E-Library where" style="transform: matrix(1,0,0,1,29,540)" >
			<tspan x="0" y="22.2" class="t53">Welcome to</tspan><tspan  y="22.2" class="t53"> </tspan><tspan  y="22.2" class="t53">A</tspan><tspan  y="22.2" class="t53">A</tspan><tspan  y="22.2" class="t53">S</tspan><tspan  y="22.2" class="t53">T</tspan><tspan  y="22.2" class="t53">U</tspan><tspan  y="22.2" class="t53"> </tspan><tspan  y="22.2" class="t53">E</tspan><tspan  y="22.2" class="t53">-</tspan><tspan  y="22.2" class="t53">L</tspan><tspan  y="22.2" class="t53">i</tspan><tspan  y="22.2" class="t53">b</tspan><tspan  y="22.2" class="t53">r</tspan><tspan  y="22.2" class="t53">a</tspan><tspan  y="22.2" class="t53">r</tspan><tspan  y="22.2" class="t53">y</tspan><tspan  y="22.2" class="t53"> </tspan><tspan  y="22.2" class="t53">w</tspan><tspan  y="22.2" class="t53">here Knowledge Meets </tspan>
			<tspan x="0" y="65.7" class="t53">Innovation! Discover a world of limitless possibilities at </tspan>
			<tspan x="0" y="109.2" class="t53">the forefront of education and exploration. Empowering </tspan>
			<tspan x="0" y="152.8" class="t53">minds,</tspan><tspan  y="152.8" class="t53"> </tspan><tspan  y="152.8" class="t53">a</tspan><tspan  y="152.8" class="t53">n</tspan><tspan  y="152.8" class="t53">d</tspan><tspan  y="152.8" class="t53"> fostering creativity, we are your digital </tspan>
			<tspan x="0" y="196.3" class="t53">gateway to inspiration. Join us on this journey of </tspan>
			<tspan x="0" y="239.8" class="t53">discovery and excellence.</tspan><tspan  y="239.8" class="t53">
</tspan>
		</text>
		<text id="BOOK DAY" style="transform: matrix(1,0,0,1,80.847,480.247)" >
			<tspan x="0" y="0" class="t54">BOOK DAY
</tspan>
		</text>
		<text id="EVERY DAY " style="transform: matrix(1,0,0,1,76.847,244.247)" >
			<tspan x="0" y="0" class="t54">E</tspan><tspan  y="0" class="t54">V</tspan><tspan  y="0" class="t54">E</tspan><tspan  y="0" class="t54">R</tspan><tspan  y="0" class="t54">Y</tspan><tspan  y="0" class="t54"> </tspan><tspan  y="0" class="t54">D</tspan><tspan  y="0" class="t54">A</tspan><tspan  y="0" class="t54">Y</tspan><tspan  y="0" class="t54">
</tspan>
		</text>
		<text id="iS World" style="transform: matrix(1,0,0,1,86.847,329.721)" >
			<tspan x="0" y="0" class="t55">i</tspan><tspan  y="0" class="t55">S</tspan><tspan  y="0" class="t55"> </tspan><tspan  y="0" class="t55">World
</tspan>
		</text>
	</g>
</svg>