<svg version="1.2" xmlns="http://www.w3.org/2000/svg" viewBox="0 0 3556 1999" width="3556" height="1999">
	<title>3959022</title>
	<style>
		.s0 { fill: #dbb656 } 
		.s1 { fill: #2b1d1b } 
		.s2 { fill: #8790b1 } 
	</style>
	<g id="Background">
		<rect width="3556" height="1999" id="Background" style="fill: #dbdddf"/>
	</g>
	<g id="Design">
		<path id="Shape" class="s0" d="m1007.7 1787.5c0 0-10.4-84.2 31.7-128.8 42.1-44.7 92.4-47.9 133.8-28.8 41.4 19.1 67 49.5 122.7 32.9 55.6-16.5 177.1-68.7 246.5-34.3 69.4 34.4 125.5 89.2 108.3 150.5-17.3 61.3-66.7 75.2-74.3 129.4-7.7 54.3 68.6 99.7 68.6 99.7 36.9 18.8 121.7 102.7 126.1 157.6 4.4 55-4.7 133.5-90.9 154.3-86.3 20.8-186.2-10.8-231.5 36.8-45.3 47.5-59.7 139.3-165.4 156-105.8 16.7-161.9-64.1-174-117.9-12.1-53.9-14.9-163.4-102-180.6-87.1-17.2-142.8-25-187.5-92.9-44.7-67.9-61.3-175.1 7.9-215.2 69.1-40.1 148.4-18.8 180-118.7z"/>
		<path id="Shape" class="s0" d="m-102 1803.9c0 0 43.3-72.8 103.9-82.4 60.6-9.6 102.3 18.7 123.4 59.1 21.1 40.5 22.8 80.1 76.9 101.1 54.1 20.9 182.2 53.9 216 123.6 33.9 69.7 44.7 147.4-6.4 185.3-51.2 38-98.7 18.7-138 56.9-39.2 38.2-6.6 120.9-6.6 120.9 17.6 37.4 33.4 155.7 3.2 201.8-30.1 46.2-85.3 102.7-166.2 66.4-81-36.3-140.8-122.4-205.6-112.5-64.9 9.9-132.5 73.7-226.4 22.2-93.8-51.5-88.8-149.7-65.4-199.7 23.4-50 88.2-138.3 29.8-205.2-58.4-66.9-97.7-107.2-91.6-188.2 6.2-81.1 58.8-176.1 138-165.5 79.2 10.6 128.8 76 215 16.2z"/>
		<path id="Shape" class="s1" d="m268.7 2122.5c23.1-14.4 7.9-55.2 1.7-74.9-6.1-19.6-11.5-41.7-26.2-57-14.2-14.8-35.5-19.9-54.7-24.6-13.9-3.4-28-6.5-40.7-13.3-16.1-8.6-28.6-22.2-39.7-36.3-11.7-15-21-31.5-32.1-46.9-11.1-15.4-24.8-22.7-42.8-27.8-35.6-10.1-71.7-22.1-98.1 12.4-23.4 30.5-24.4 75.6 6.9 100.6 50.7 40.4 118.4 58.3 164.4 105.1 22.7 23 46.1 43 75 58.3 22.7 12 64.3 31.4 84.6 5.7 6.4-8.1 17.9 3.1 11.5 11.2-18.3 23.3-50.9 18.7-75.6 9.7-33-11.9-64-32.1-89.7-55.9-11.3-10.4-20.9-22.1-33.2-31.5-16.7-12.7-35-23.3-53.2-33.8-32.4-18.5-68.4-34.7-97.1-59-29.4-25-33.3-66.3-18.1-100.3 16.3-36.4 49.2-55.4 88.4-48.1 19.9 3.7 42.5 8.9 60.7 18 15.5 7.7 26 20.7 35.4 34.9 13.7 20.9 26.7 43.2 46 59.6 15.5 13.3 33.8 17.4 53.1 22.3 22.8 5.6 46.8 12.8 62.9 31.1 16.2 18.5 22.3 43.8 29.5 66.7 8.3 26.5 18.9 69.1-10.7 87.6-8.8 5.4-17-8.4-8.2-13.8zm77.1 56.5c34.3-22.2 18.4-85.7 14.9-119.1-2.3-22.4-7.4-39.3-24.3-55.1-24.2-22.7-53.7-38.7-80.3-58.1-22.7-16.5-40.3-34.8-51.8-60.5-11.5-25.7-19.3-53.8-38.4-75.3-36.5-41.3-94.9-55.6-146.6-40.7-17.4 5.1-34.2 16.3-52.8 15.7-9.5-0.2-17.7-4.3-26.9-5.7-10.1-1.4-20.7 1.4-30 5.1-22.9 8.9-44.6 25.7-58 46.4-12.8 19.9-13 43.8-11.4 66.8 2.1 30 11 61.4 31.4 84.4 19.8 22.3 49.3 31.6 75.8 43.5 52.9 23.7 108.2 48.7 152 87.4 27.2 23.9 48.8 52.2 78.3 73.8 12.9 9.4 26.5 18.1 40.8 25.4 9.6 5 21.1 11.5 32.2 12 20.6 1.1 43.8-14.1 60.8-24.1 11.7-6.8 23.2-14.1 34.3-21.9 8.4-6 16.5 7.8 8.1 13.8-27.2 19.4-59.9 41.6-93.4 47.3-20.4 3.5-40.3-7.6-57.5-17.2-31-17.2-59.5-39.8-83.9-65.4-23.8-24.8-46.2-46.4-75.9-64.5-29.5-18-60.7-33.1-92.1-47.3-28.2-12.9-60.9-22.7-83.9-44.3-21.9-20.5-34.5-49-39.9-78.2-4.5-24.4-7-53.5 0.2-77.6 6.8-22.9 23.9-41.8 42.5-56 17.4-13.2 39.1-24.6 61.4-25.7 10.4-0.4 18.9 3.5 28.8 5.3 11.4 2 20.6-1.5 31-5.8 50.7-20.8 99.1-20.7 147.2 6.6 28.3 16 48.6 36.9 62.4 66.5 13.4 28.9 21.1 59.4 45.3 81.7 30.4 28.1 69.2 45.6 99.9 73.6 19.1 17.5 27.2 36.7 30.2 62.1 4.8 41.2 21.1 110.8-22.3 138.9-8.6 5.6-16.8-8.2-8.1-13.8z"/>
		<path id="Shape" class="s0" d="m2950.7-205.4c0 0-11.1-90.1 34-138 45-47.8 98.9-51.2 143.2-30.7 44.4 20.4 71.8 52.9 131.3 35.2 59.6-17.7 189.7-73.7 264-36.8 74.3 36.8 134.3 95.6 115.9 161.3-18.4 65.6-71.3 80.5-79.6 138.6-8.2 58.1 73.6 106.8 73.6 106.8 39.4 20.1 130.2 110 134.9 168.9 4.8 58.8-5 142.9-97.3 165.2-92.4 22.3-199.4-11.5-247.8 39.4-48.5 50.9-63.9 149.3-177.2 167.1-113.2 17.9-173.3-68.6-186.2-126.3-12.9-57.7-15.9-175-109.2-193.4-93.2-18.4-152.9-26.8-200.8-99.5-47.8-72.7-65.6-187.7 8.5-230.6 74-42.9 158.9-20.1 192.7-127.2z"/>
		<path id="Shape" class="s1" d="m3435.5 291.5c5.7 14.1 12.6 31.3 6.5 47.4-9.6 25.2-41.3 26.6-64.1 25.6-31.2-1.4-61.8-7.3-92.3 2.8-39.2 13.1-64.9 48-105.7 58.1-51 12.6-126.1-7.5-141.6-64.5-8.5-31.3-7.5-65-21.9-94.7-6.5-13.2-15.9-24.3-30.6-28.1-14.9-4-28.9-3-43.4-9.6-51.4-23-91.4-89.2-60.7-143 27-47.2 90.7-51 139-51.5 65.7-0.7 130.9 9 196.3 14.8 33 2.9 64.4 2.4 97.2-3.8 34.8-6.5 69.3-16.3 104.7-19.4 32.4-2.7 66.3 2.5 88.2 28.7 24.2 28.9 43.8 72.1 48.2 109.7 3.6 30.4-7.1 59.2-37.1 71-24.1 9.4-95.9 15.9-82.7 56.5 3.5 10.8-13.5 15.5-17 4.7-19.6-60.4 68.5-62 100.9-81.2 29.7-17.6 18.8-59.5 8.9-85.6-11.7-30.9-29.4-72.2-63.6-82.9-29.8-9.4-63.6-1.7-93.3 4.5-31 6.4-62 14.2-93.6 16.9-54.3 4.7-110.5-7.1-164.4-11.8-54.5-4.9-114.5-11-168 4.1-25.1 7.2-46.7 21.5-54.4 48-8.8 30.5 6.5 61.9 28.1 83.1 10.7 10.5 23.7 19.5 38.1 24.3 12.2 4 25.1 2.6 37.3 6.7 21.6 7.3 34.5 26.5 42.2 47 10.1 26.9 11.2 55.6 17.8 83.3 6.5 27.6 31.3 45.1 57.1 53.5 41.2 13.3 80.7 1.6 114-24.2 28-21.6 57.7-36.5 93.5-38.2 29.3-1.3 60.8 8.8 89.6 1.3 26.5-7 17.3-30.4 9.8-48.8-4.2-10.5 12.7-15 17-4.7zm-61.8-50.9c26.3-20.8 35-51 18.7-81.1-10-18.4-24.3-37.7-43.6-47.1-27.6-13.5-43.6 5.6-64.8 19.8-78.2 52.5-160.2-33.3-237.8-39.8-41.7-3.5-68.6 26.6-56.8 67.1 9.4 32.3 37.9 68.9 73.6 72.4 24.7 2.5 40.3 3 55.2 25.4 17.6 26.3 27.8 50.1 64 51.4 41.1 1.4 57.3-25.9 85.1-49.1 10-8.3 20.6-11.7 33.7-10.7 27.7 2.1 48.7 13.4 72.7-8.3 5.6-5.1 13.9 3.2 8.3 8.3-15.6 14-32.2 19.4-53.1 16.7-21.8-2.9-40-10.5-57.7 6.4-23.4 22-41.3 44.3-75.5 47.8-36 3.8-60.6-10.9-78.4-41-7.7-13.1-14.8-28.6-30.4-33.5-16.6-5.2-32.5-0.8-49.1-8.8-51.2-24.8-101.5-130.8-21.3-153.5 45-12.7 92.9 15.9 132.6 33 26.2 11.3 55.1 21.6 84.1 20.4 15.1-0.6 29.6-4.6 42.4-12.7 11.4-7.1 20-17.6 32.4-23.1 44.1-19.9 83.1 26.7 99.3 62.5 14.1 31.3 0.8 65.2-25.3 85.8-5.8 4.6-14.2-3.7-8.3-8.3z"/>
		<path id="Shape" class="s1" d="m1501.6 1912.1c6.9-15.1 15.2-33.6 9.3-51.5-9.3-27.8-43.9-30.8-68.8-30.8-34.1 0.1-67.8 5.3-100.7-7.2-42.1-16-68.6-55.3-112.7-68.1-55.1-16.1-137.9 2.4-157.4 64-10.7 33.8-11.1 70.6-28.3 102.4-7.6 14.1-18.4 25.7-34.6 29.2-16.4 3.7-31.6 2-47.8 8.5-57.1 22.8-103.8 93.2-72.7 153.3 27.3 52.7 96.7 59.8 149.4 62.5 71.7 3.7 143.3-3.9 214.9-7.3 36.2-1.7 70.4 0.3 105.9 8.5 37.8 8.7 75 21 113.5 25.9 35.2 4.4 72.5 0.3 97.6-27.3 27.6-30.5 51-76.7 57.5-117.5 5.3-33.1-5.1-65-37.4-79.2-25.9-11.4-103.9-21.7-87.7-65.4 4.3-11.7-14-17.5-18.3-5.9-24.1 65.1 72 70.8 106.4 93.2 31.7 20.6 17.9 65.7 6 93.8-14.2 33.2-35.4 77.5-73.2 87.6-33 8.9-69.5-1.1-101.6-9.1-33.6-8.5-67-18.3-101.5-22.7-59-7.5-120.8 2.7-179.9 5.5-59.7 2.8-125.5 6.8-183.2-12.2-27.1-8.9-50-25.4-57.2-54.7-8.3-33.7 9.9-67.3 34.4-89.4 12.2-11 26.8-20.2 42.7-24.8 13.5-3.9 27.5-1.7 41-5.7 23.9-7 38.8-27.3 48.2-49.3 12.2-29 14.7-60.2 23.1-90.1 8.4-29.8 36.3-47.9 64.8-55.8 45.5-12.7 88.2 1.8 123.3 31.5 29.6 24.9 61.4 42.5 100.4 45.9 31.8 2.7 66.8-6.9 97.8 2.6 28.6 8.9 17.5 34 8.5 53.7-5.1 11.2 13.3 17 18.3 5.9zm-69.6 52.8c27.7 23.8 35.8 57.2 16.6 89.3-11.7 19.7-28.2 40-49.6 49.4-30.8 13.5-47.4-8.1-69.8-24.5-83.1-60.8-176.4 29.1-261.4 32.7-45.6 1.9-73.7-32.1-59-75.8 11.7-34.8 44.4-73.4 83.6-75.7 27.1-1.5 44.1-1.4 61.4-25.2 20.4-27.9 32.6-53.4 72.2-53.2 44.9 0.4 61.3 30.9 90.6 57.4 10.6 9.5 22 13.7 36.3 13.2 30.4-1 53.8-12.4 79.1 12.4 5.8 5.8 15.3-2.9 9.4-8.7-16.4-16-34.3-22.7-57.2-20.6-23.9 2.1-44.1 9.6-62.8-9.6-24.5-25.1-43-50.2-80.2-55.6-39.1-5.8-66.7 9.1-87.4 41.3-9 13.9-17.5 30.4-34.7 35.1-18.3 4.9-35.5-0.6-54 7.4-57 24.7-116.6 138.1-30.2 166.5 48.6 15.9 102.1-13.1 146.2-30 29.2-11.1 61.1-21.1 92.7-18.5 16.5 1.3 32.2 6.4 45.8 15.8 12.1 8.3 21 20.1 34.3 26.7 47.2 23.6 91.8-25.4 111.1-63.7 16.9-33.6 3.9-71.1-23.6-94.8-6.2-5.3-15.7 3.3-9.4 8.7z"/>
		<path id="Shape" class="s2" d="m2599.8 92.8c-2.8-4.7-10.6-5.4-14.6-2.1-2 1.6-3.2 3.6-3.7 5.6-2 3.5-1.9 8 0.6 11.5q3.6 4.9 7.1 9.9c0.7 1.1 1.7 1.9 2.8 2.6 2.9 2.8 7.1 4.2 11.2 2.4 5.1-2.4 7.9-8.2 5.7-13.6-0.9-2.2-2.1-4.3-3.4-6.3q-2.8-5-5.7-10zm-34.5-41.1c-2-3-4.5-5.6-7.6-7.2-5.2-3.2-11.6-3.7-17.7 0.1-4 2.5-4.8 8.2-3.3 12.3q0.4 1.1 0.9 2.2c1.4 7.4 7.7 14.6 14.8 15.5 5.8 0.8 11.3-1.8 14.2-6.7 2.1-3.7 1.9-7.4 0.6-11-0.2-1.8-0.8-3.5-1.9-5.2zm50.8-7.8c-0.3 0-0.5 0.1-0.8 0.1-0.3-0.1-0.6-0.2-0.9-0.2-8.4-0.9-15.3 6.7-13.8 15 1.4 8.3 9.7 14.5 18 14.6q0.6 0.4 1.3 0.8c4.7 2.8 11.8-0.8 13.6-5.6 1.4-3.7 0.8-7-1.2-9.7-0.4-3.1-1.5-6.1-3.8-8.6-3.1-3.5-7.5-6.3-12.4-6.4zm13.9 120.4c0.8 3.6 2.6 6.9 4.8 9.8 1.6 4.3 4.3 8.1 8.3 10.8 7.8 5.3 18.8 5.5 25.8-1.2 16.5-15.5-4-45.4-24.2-41.7-10.6 2-17.1 11.9-14.7 22.3zm8.8-67.8c-5.4 0.4-9.9 6.4-8.9 11.7 1 5.8 5.9 9.3 11.7 8.9q1.3 0 2.7-0.1c5.4-0.4 9.9-6.4 8.9-11.7-1-5.8-5.9-9.3-11.7-8.9q-1.3 0-2.7 0.1zm-88.2 57.7c-5.5 7-6 16.9-0.7 24.2 5.1 7.1 14.7 9.9 23 8.1 2.7-0.6 5.5-1.7 8.1-3.1q0.4-0.2 0.7-0.4c5.8-3.4 10.3-8.8 9.4-15.9-0.3-2.3-1.3-4.5-2.6-6.6-5.8-14.5-27.4-19.6-37.9-6.3zm4.3-38.9c0.5-2.6 0.1-5.5-1.9-7.9-2.8-3.4-8.2-5.2-12.4-3.4-3.6 0.4-7 2.4-8.4 6.1-1 2.8-0.9 5.7 0.2 8.2 0.2 1.5 0.7 3 1.4 4.2 2.8 5 9.1 7.3 14.3 4.8 4.7-2.2 7.2-6.9 6.8-12z"/>
		<path id="Shape" class="s2" d="m895.1 1758.2c5-2.1 6.8-9.8 4.1-14.2-1.4-2.2-3.1-3.6-5-4.4-3.2-2.5-7.6-3-11.5-1q-5.4 2.8-10.8 5.6c-1.1 0.5-2.1 1.4-2.9 2.4-3.3 2.5-5.3 6.4-4 10.7 1.6 5.4 7 9 12.6 7.5 2.3-0.5 4.6-1.4 6.7-2.4q5.4-2 10.8-4.2zm45.5-28.3c3.3-1.6 6.2-3.7 8.2-6.6 3.9-4.7 5.3-10.9 2.4-17.5-1.9-4.3-7.4-5.9-11.7-5q-1.1 0.2-2.3 0.6c-7.5 0.3-15.5 5.5-17.5 12.5-1.5 5.5 0.2 11.3 4.7 14.9 3.4 2.7 7.1 3 10.8 2.2 1.8 0.1 3.6-0.3 5.4-1.1zm0.5 51.3c0.1-0.2 0.1-0.5 0.1-0.8 0.1-0.3 0.2-0.5 0.3-0.8 2.1-8.3-4.5-16.1-12.9-15.8-8.5 0.2-15.8 7.6-17 15.8q-0.5 0.5-1 1.1c-3.4 4.3-0.9 11.8 3.6 14.3 3.5 1.8 6.9 1.7 9.8 0.2 3.2 0 6.3-0.7 9.1-2.6 3.9-2.6 7.3-6.6 8-11.4zm-121.1-3.2c-3.7 0.3-7.2 1.5-10.4 3.3-4.4 1-8.6 3.2-11.8 6.7-6.4 7-8.1 17.9-2.5 25.8 13.1 18.4 45.5 2.4 44.7-18.2-0.5-10.7-9.3-18.5-20-17.6zm65.8 18.3c0.5-5.5-4.9-10.7-10.2-10.5-6 0.2-10.1 4.5-10.6 10.3q-0.1 1.4-0.2 2.7c-0.4 5.5 5 10.7 10.3 10.5 6-0.2 10.1-4.5 10.5-10.3q0.1-1.4 0.2-2.7zm-44.6-95.5c-6.1-6.4-15.9-8.3-23.9-4.1-7.7 4.1-11.9 13.1-11.2 21.6 0.2 2.7 0.9 5.7 1.9 8.5q0.2 0.4 0.3 0.7c2.6 6.2 7.3 11.5 14.4 11.5 2.3 0 4.7-0.6 6.9-1.6 15.2-3.7 23.3-24.3 11.6-36.6zm37.9 9.7c2.6 1 5.4 0.9 8.1-0.7 3.7-2.3 6.3-7.4 5.1-11.8 0.2-3.6-1.3-7.3-4.8-9.2-2.7-1.4-5.6-1.6-8.2-0.9-1.5 0-3 0.2-4.4 0.8-5.2 2-8.4 7.9-6.7 13.4 1.5 5 5.8 8.1 10.9 8.4z"/>
		<path id="Shape" class="s2" d="m1109.5 1331.9c19.1 21 49.2 18.7 72.7 7 23.6-11.8 51.2-39.9 80.1-30.3 15.5 5.2 25.9 20.2 39.9 28.2 10.3 5.8 22 8.9 33.9 8.8 24.9-0.2 48.8-12.4 61.9-33.8 6.4-10.3-9.3-20.9-15.7-10.5-11.7 18.9-35.1 29-57 24.3-25.6-5.4-39-32.8-65.6-37-24.1-3.8-46 9-65.6 21.4-19.1 12.1-50.5 31.2-70.3 9.5-8.2-9-22.5 3.4-14.3 12.4z"/>
		<path id="Shape" class="s2" d="m-57.5 460.9c19.1 21 49.2 18.7 72.7 7 23.6-11.8 51.2-39.9 80.1-30.3 15.5 5.2 25.9 20.2 39.9 28.2 10.3 5.8 22 8.9 33.9 8.8 24.9-0.2 48.8-12.4 61.9-33.8 6.4-10.3-9.3-20.9-15.7-10.5-11.7 18.9-35.1 29-57 24.3-25.6-5.4-39-32.8-65.6-37-24.1-3.8-46 9-65.6 21.4-19.1 12.1-50.5 31.2-70.3 9.5-8.2-9-22.5 3.4-14.3 12.4z"/>
		<path id="Shape" class="s2" d="m445.5 1760.4c-0.7-8.4-0.6-16.7 0.2-24.9q15.7 0.8 31.6 0.3c15-0.4 11.5-23.5-3.3-23.1q-12.1 0.4-24.2-0.2c0.9-3.2 1.9-6.5 3-9.7 4.9-14.2-16.8-22.7-21.7-8.5q-2.8 8.1-4.8 16.3-8.3-0.9-16.6-2.3c-14.9-2.4-17.4 20.8-2.7 23.2q7.8 1.2 15.6 2.1c-1 9.9-1.1 20-0.2 30.1 1.3 15 24.3 11.6 23.1-3.3z"/>
	</g>
</svg>