<svg version="1.2" xmlns="http://www.w3.org/2000/svg" viewBox="0 0 1099 734" width="1099" height="734">
	<title>6565207-ai</title>
	<style>
		.s0 { fill: #f9c319 } 
		.s1 { fill: #ffd110 } 
		.s2 { fill: #ffffff } 
	</style>
	<g id="OBJECTS">
		<g id="&lt;Group&gt;">
			<g id="&lt;Group&gt;">
				<g id="&lt;Group&gt;">
					<g id="&lt;Group&gt;">
						<g id="&lt;Group&gt;">
							<g id="&lt;Group&gt;">
								<g id="&lt;Group&gt;">
									<g id="&lt;Group&gt;">
										<g id="&lt;Group&gt;">
											<g id="&lt;Group&gt;">
												<g id="&lt;Group&gt;">
													<g id="&lt;Group&gt;">
														<g id="&lt;Group&gt;">
															<g id="&lt;Group&gt;">
																<g id="&lt;Group&gt;">
																	<g id="&lt;Group&gt;">
																		<g id="&lt;Group&gt;">
																			<g id="&lt;Group&gt;">
																				<path id="&lt;Path&gt;" class="s0" d="m1099 738.7h-1107v-738h1107z"/>
																			</g>
																		</g>
																	</g>
																</g>
															</g>
														</g>
													</g>
												</g>
											</g>
										</g>
									</g>
								</g>
							</g>
						</g>
						<g id="&lt;Group&gt;">
							<g id="&lt;Group&gt;">
								<g id="&lt;Group&gt;">
									<g id="&lt;Group&gt;">
										<g id="&lt;Group&gt;">
											<g id="&lt;Group&gt;">
												<g id="&lt;Group&gt;">
													<g id="&lt;Group&gt;">
														<g id="&lt;Group&gt;">
															<g id="&lt;Group&gt;">
																<g id="&lt;Group&gt;">
																	<g id="&lt;Group&gt;">
																		<g id="&lt;Group&gt;">
																			<g id="&lt;Group&gt;">
																				<path id="&lt;Path&gt;" class="s1" d="m817.5-4.3c-26.6 29.8-30.4 69-22.5 106.3 12 48 58 72 104 84 50 14 98 14 148 4 17.6-4.6 35-9.8 52-15.5v-178.8z"/>
																				<path id="&lt;Path&gt;" class="s1" d="m249 628c-12-50-52-82-100-92-52.9-10.9-111.8-3.6-157 25.5v172.2h232.5c5.1-6.5 9.9-13.1 14.5-19.7 18-26 18-56 10-86z"/>
																			</g>
																		</g>
																	</g>
																</g>
															</g>
														</g>
													</g>
												</g>
											</g>
										</g>
									</g>
								</g>
							</g>
						</g>
						<g id="&lt;Group&gt;">
							<g id="&lt;Group&gt;">
								<g id="&lt;Group&gt;">
									<g id="&lt;Group&gt;">
										<g id="&lt;Group&gt;">
											<g id="&lt;Group&gt;">
												<g id="&lt;Group&gt;">
													<g id="&lt;Group&gt;">
														<g id="&lt;Group&gt;">
															<g id="&lt;Group&gt;">
																<g id="&lt;Group&gt;">
																	<g id="&lt;Group&gt;">
																		<g id="&lt;Group&gt;">
																			<g id="&lt;Group&gt;">
																				<path id="&lt;Path&gt;" class="s1" d="m261 402c42-52 33.6-79.5 45.6-143.5 10-46 57.1-72.7 100.4-64.5 62 10 154 12 170-62 10.4-45.9 9.7-98.4-16.4-136.3h-568.6v450.2c89.5 29.4 201.3 36.9 269-43.9z"/>
																			</g>
																		</g>
																	</g>
																</g>
															</g>
														</g>
													</g>
												</g>
											</g>
										</g>
									</g>
								</g>
							</g>
						</g>
						<g id="&lt;Group&gt;">
							<g id="&lt;Group&gt;">
								<g id="&lt;Group&gt;">
									<g id="&lt;Group&gt;">
										<g id="&lt;Group&gt;">
											<g id="&lt;Group&gt;">
												<g id="&lt;Group&gt;">
													<g id="&lt;Group&gt;">
														<g id="&lt;Group&gt;">
															<g id="&lt;Group&gt;">
																<g id="&lt;Group&gt;">
																	<g id="&lt;Group&gt;">
																		<g id="&lt;Group&gt;">
																			<g id="&lt;Group&gt;">
																				<path id="&lt;Path&gt;" class="s2" d="m1099 360.1c-23.1 7.4-48 6.1-72 1.9-6-2-43.2-11.6-51.2-13.6-86-32-88.2-77-166.2-125-50-28-142.6-13.4-188.6 20.6-82 58-76 158-60 250 10 56-70 54-110 84-42 28-58 74-42 116 5.2 13.9 12.4 27.3 21.2 39.7h668.8z"/>
																			</g>
																		</g>
																	</g>
																</g>
															</g>
														</g>
													</g>
												</g>
											</g>
										</g>
									</g>
								</g>
							</g>
						</g>
					</g>
					<g id="&lt;Group&gt;">
						<g id="&lt;Group&gt;">
						</g>
					</g>
				</g>
			</g>
		</g>
	</g>
</svg>